SplineFontDB: 3.2
FontName: S4F_A350_AFSCP_display
FullName: S4F_A350_AFSCP_display
FamilyName: S4F_A350_AFSCP_display
Weight: Book
Copyright: Copyright (c) 2021, Jkaled777
Version: 001.000
ItalicAngle: 0
UnderlinePosition: -100
UnderlineWidth: 50
Ascent: 800
Descent: 200
InvalidEm: 0
sfntRevision: 0x00010000
LayerCount: 2
Layer: 0 1 "Hinten" 1
Layer: 1 1 "Vorne" 0
XUID: [1021 631 -243766293 30409]
StyleMap: 0x0000
FSType: 0
OS2Version: 4
OS2_WeightWidthSlopeOnly: 0
OS2_UseTypoMetrics: 1
CreationTime: 1603675803
ModificationTime: 1733903687
PfmFamily: 17
TTFWeight: 400
TTFWidth: 5
LineGap: 90
VLineGap: 0
Panose: 2 0 5 3 0 0 0 0 0 0
OS2TypoAscent: 800
OS2TypoAOffset: 0
OS2TypoDescent: -200
OS2TypoDOffset: 0
OS2TypoLinegap: 90
OS2WinAscent: 804
OS2WinAOffset: 0
OS2WinDescent: 192
OS2WinDOffset: 0
HheadAscent: 804
HheadAOffset: 0
HheadDescent: -192
HheadDOffset: 0
OS2SubXSize: 650
OS2SubYSize: 699
OS2SubXOff: 0
OS2SubYOff: 140
OS2SupXSize: 650
OS2SupYSize: 699
OS2SupXOff: 0
OS2SupYOff: 479
OS2StrikeYSize: 49
OS2StrikeYPos: 258
OS2CapHeight: 785
OS2XHeight: 377
OS2Vendor: 'PfEd'
OS2CodePages: 00000001.00000000
OS2UnicodeRanges: 00000003.00000000.00000000.00000000
MarkAttachClasses: 1
DEI: 91125
TtTable: prep
PUSHW_1
 511
SCANCTRL
PUSHB_1
 1
SCANTYPE
SVTCA[y-axis]
MPPEM
PUSHB_1
 8
LT
IF
PUSHB_2
 1
 1
INSTCTRL
EIF
PUSHB_2
 70
 6
CALL
IF
POP
PUSHB_1
 16
EIF
MPPEM
PUSHB_1
 20
GT
IF
POP
PUSHB_1
 128
EIF
SCVTCI
PUSHB_1
 6
CALL
NOT
IF
EIF
PUSHB_1
 20
CALL
EndTTInstrs
TtTable: fpgm
PUSHB_1
 0
FDEF
PUSHB_1
 0
SZP0
MPPEM
PUSHB_1
 42
LT
IF
PUSHB_1
 74
SROUND
EIF
PUSHB_1
 0
SWAP
MIAP[rnd]
RTG
PUSHB_1
 6
CALL
IF
RTDG
EIF
MPPEM
PUSHB_1
 42
LT
IF
RDTG
EIF
DUP
MDRP[rp0,rnd,grey]
PUSHB_1
 1
SZP0
MDAP[no-rnd]
RTG
ENDF
PUSHB_1
 1
FDEF
DUP
MDRP[rp0,min,white]
PUSHB_1
 12
CALL
ENDF
PUSHB_1
 2
FDEF
MPPEM
GT
IF
RCVT
SWAP
EIF
POP
ENDF
PUSHB_1
 3
FDEF
ROUND[Black]
RTG
DUP
PUSHB_1
 64
LT
IF
POP
PUSHB_1
 64
EIF
ENDF
PUSHB_1
 4
FDEF
PUSHB_1
 6
CALL
IF
POP
SWAP
POP
ROFF
IF
MDRP[rp0,min,rnd,black]

StartChar: .notdef
Encoding: 65536 -1 0
Width: 500
GlyphClass: 1
Flags: W
LayerCount: 2
Fore
SplineSet
50 0 m 1,0,-1
 50 533 l 1,1,-1
 450 533 l 1,2,-1
 450 0 l 1,3,-1
 50 0 l 1,0,-1
100 50 m 1,4,-1
 400 50 l 1,5,-1
 400 483 l 1,6,-1
 100 483 l 1,7,-1
 100 50 l 1,4,-1
EndSplineSet
Validated: 1
EndChar

StartChar: plus
Encoding: 43 43 3
Width: 640
GlyphClass: 1
Flags: W
LayerCount: 2
Fore
SplineSet
359 479 m 0,0,1
 355 473 355 473 350 473 c 2,2,-1
 281 473 l 2,3,4
 275 473 275 473 272 479 c 0,5,6
 267 488 267 488 256 506 c 0,7,8
 251 514 251 514 252 522 c 0,9,10
 253 532 253 532 256 538 c 0,11,12
 282 591 282 591 305 619 c 0,13,14
 309 624 309 624 316 624 c 128,-1,15
 323 624 323 624 326 619 c 0,16,17
 332 610 332 610 350 579 c 128,-1,18
 368 548 368 548 375 538 c 0,19,20
 380 531 380 531 380 522 c 0,21,22
 380 515 380 515 375 506 c 0,23,24
 369 496 369 496 359 479 c 0,0,1
209 449 m 0,25,26
 224 458 224 458 241 458 c 2,27,-1
 417 458 l 2,28,29
 425 458 425 458 428 454 c 0,30,31
 440 440 440 440 465 413 c 0,32,33
 471 406 471 406 472 395 c 128,-1,34
 473 384 473 384 464 375 c 0,35,36
 446 358 446 358 429 340 c 0,37,38
 423 334 423 334 414 334 c 2,39,-1
 239 334 l 2,40,41
 225 334 225 334 211 341 c 0,42,43
 195 349 195 349 150 376 c 0,44,45
 141 381 141 381 140 395 c 0,46,47
 139 406 139 406 150 413 c 0,48,49
 156 416 156 416 177.5 429.5 c 128,-1,50
 199 443 199 443 209 449 c 0,25,26
359 313 m 0,51,52
 364 303 364 303 375 286 c 0,53,54
 380 278 380 278 380 269 c 128,-1,55
 380 260 380 260 375 254 c 0,56,57
 340 195 340 195 326 173 c 0,58,59
 323 167 323 167 315.5 167 c 128,-1,60
 308 167 308 167 305 173 c 0,61,62
 299 183 299 183 281 213 c 128,-1,63
 263 243 263 243 256 254 c 0,64,65
 252 261 252 261 252 270 c 128,-1,66
 252 279 252 279 256 286 c 0,67,68
 269 308 269 308 272 313 c 128,-1,69
 275 318 275 318 281 318 c 2,70,-1
 350 318 l 2,71,72
 356 318 356 318 359 313 c 0,51,52
EndSplineSet
Validated: 1
EndChar

StartChar: hyphen
Encoding: 45 45 4
Width: 640
GlyphClass: 1
Flags: W
LayerCount: 2
Fore
SplineSet
209 449 m 0,0,1
 224 458 224 458 241 458 c 2,2,-1
 417 458 l 2,3,4
 425 458 425 458 428 454 c 0,5,6
 440 440 440 440 465 413 c 0,7,8
 471 406 471 406 472 395 c 128,-1,9
 473 384 473 384 464 375 c 0,10,11
 446 358 446 358 429 340 c 0,12,13
 423 334 423 334 414 334 c 2,14,-1
 239 334 l 2,15,16
 225 334 225 334 211 341 c 0,17,18
 195 349 195 349 150 376 c 0,19,20
 141 381 141 381 140 395 c 0,21,22
 139 406 139 406 150 413 c 0,23,24
 156 416 156 416 177.5 429.5 c 128,-1,25
 199 443 199 443 209 449 c 0,0,1
EndSplineSet
Validated: 1
EndChar

StartChar: period
Encoding: 46 46 5
Width: 0
GlyphClass: 1
Flags: W
LayerCount: 2
Fore
SplineSet
-56 58 m 132,-1,1
 -56 81 -56 81 -39 98 c 132,-1,2
 -22 115 -22 115 1 115 c 132,-1,3
 24 115 24 115 41 98 c 132,-1,4
 58 81 58 81 58 58 c 132,-1,5
 58 35 58 35 41 18 c 132,-1,6
 24 1 24 1 1 1 c 132,-1,7
 -22 1 -22 1 -39 18 c 132,-1,0
 -56 35 -56 35 -56 58 c 132,-1,1
EndSplineSet
Validated: 1
EndChar

StartChar: slash
Encoding: 47 47 6
Width: 1000
GlyphClass: 1
Flags: W
LayerCount: 2
Fore
SplineSet
742 786 m 1,0,1
 771 786 771 786 810 786 c 0,2,3
 824 786 824 786 852 786 c 128,-1,4
 880 786 880 786 894 786 c 0,5,6
 903 786 903 786 913 786 c 1,7,8
 786 598 786 598 552 251 c 128,-1,9
 318 -96 318 -96 258 -186 c 1,10,11
 243 -186 243 -186 215 -186 c 128,-1,12
 187 -186 187 -186 172 -186 c 2,13,-1
 87 -186 l 1,14,15
 163 -74 163 -74 301 131 c 128,-1,16
 439 336 439 336 492 414 c 0,17,18
 519 454 519 454 607 584.5 c 128,-1,19
 695 715 695 715 742 786 c 1,0,1
EndSplineSet
Validated: 1
EndChar

StartChar: zero
Encoding: 48 48 7
Width: 640
GlyphClass: 1
Flags: W
LayerCount: 2
Fore
SplineSet
554 411 m 0,0,1
 546 402 546 402 531 402 c 0,2,3
 530 402 530 402 525 401.5 c 128,-1,4
 520 401 520 401 517 401 c 0,5,6
 499 401 499 401 487 410 c 0,7,8
 472 420 472 420 436 462 c 0,9,10
 430 468 430 468 431 477 c 0,11,12
 431 500 431 500 431 519 c 0,13,14
 431 541 431 541 431 558 c 128,-1,15
 431 575 431 575 431 597 c 128,-1,16
 431 619 431 619 431 646 c 0,17,18
 431 656 431 656 436 666 c 0,19,20
 462 724 462 724 480 763 c 0,21,22
 485 773 485 773 496 773 c 0,23,24
 502 773 502 773 508 770 c 0,25,26
 520 761 520 761 532 744 c 0,27,28
 546 726 546 726 552 711 c 0,29,30
 560 693 560 693 560 673 c 0,31,32
 560 671 560 671 560 669 c 2,33,-1
 560 433 l 2,34,35
 560 427 560 427 560 422 c 0,36,37
 558 415 558 415 554 411 c 0,0,1
89 416 m 0,38,39
 86 418 86 418 84 420 c 0,40,41
 76 427 76 427 76 438 c 2,42,-1
 76 672 l 2,43,44
 76 701 76 701 90 725 c 0,45,46
 90 726 90 726 95 735 c 0,47,48
 100 743 100 743 109 743 c 0,49,50
 115 743 115 743 120 738 c 0,51,52
 125 734 125 734 155 703.5 c 128,-1,53
 185 673 185 673 196 663 c 0,54,55
 206 653 206 653 205 640 c 2,56,-1
 205 467 l 2,57,58
 205 458 205 458 197 454 c 0,59,60
 188 448 188 448 161.5 433 c 128,-1,61
 135 418 135 418 128 414 c 0,62,63
 120 410 120 410 111 410 c 0,64,65
 104 410 104 410 97 412 c 0,66,67
 91 414 91 414 89 416 c 0,38,39
120 751 m 0,68,69
 118 757 118 757 120 760 c 128,-1,70
 122 763 122 763 129 770 c 0,71,72
 133 774 133 774 141 779 c 0,73,74
 158 791 158 791 179 791 c 2,75,-1
 442 791 l 1,76,-1
 456 790 l 2,77,78
 457 790 457 790 459 789.5 c 128,-1,79
 461 789 461 789 463 789 c 0,80,81
 469 788 469 788 473 784 c 0,82,83
 478 779 478 779 476 773 c 0,84,85
 472 765 472 765 432 674 c 0,86,87
 427 663 427 663 415 663 c 2,88,-1
 216 663 l 2,89,90
 206 663 206 663 200 670 c 0,91,92
 123 745 123 745 120 751 c 0,68,69
554 379 m 0,93,94
 558 375 558 375 560 368 c 0,95,96
 561 362 561 362 560 357 c 2,97,-1
 560 120 l 2,98,99
 560 98 560 98 552 79 c 0,100,101
 544 61 544 61 532 46 c 0,102,103
 522 32 522 32 508 20 c 0,104,105
 502 16 502 16 496 16 c 0,106,107
 484 16 484 16 480 27 c 0,108,109
 478 30 478 30 460 70 c 128,-1,110
 442 110 442 110 436 124 c 0,111,112
 431 134 431 134 431 144 c 0,113,114
 431 170 431 170 431 192.5 c 128,-1,115
 431 215 431 215 431 232 c 128,-1,116
 431 249 431 249 431 271 c 0,117,118
 431 289 431 289 431 313 c 0,119,120
 431 321 431 321 436 327 c 0,121,122
 471 370 471 370 487 380 c 0,123,124
 500 389 500 389 517 389 c 0,125,126
 520 389 520 389 525 388.5 c 128,-1,127
 530 388 530 388 531 388 c 0,128,129
 546 388 546 388 554 379 c 0,93,94
120 42 m 0,130,131
 123 48 123 48 200 123 c 0,132,133
 206 129 206 129 216 129 c 2,134,-1
 415 129 l 2,135,136
 427 129 427 129 432 119 c 0,137,138
 473 28 473 28 476 19 c 0,139,140
 478 13 478 13 473 8 c 0,141,142
 469 4 469 4 463 3 c 0,143,144
 462 3 462 3 459 3 c 128,-1,145
 456 3 456 3 456 3 c 2,146,-1
 442 2 l 1,147,-1
 179 2 l 2,148,149
 158 2 158 2 141 14 c 0,150,151
 133 19 133 19 129 23 c 0,152,153
 122 30 122 30 120 33 c 128,-1,154
 118 36 118 36 120 42 c 0,130,131
89 376 m 0,155,156
 91 378 91 378 97 380 c 128,-1,157
 103 382 103 382 111 383 c 0,158,159
 120 383 120 383 128 379 c 0,160,161
 135 375 135 375 161.5 359.5 c 128,-1,162
 188 344 188 344 197 339 c 0,163,164
 205 335 205 335 205 326 c 2,165,-1
 205 151 l 2,166,167
 205 138 205 138 196 130 c 0,168,169
 186 120 186 120 155 89.5 c 128,-1,170
 124 59 124 59 120 55 c 0,171,172
 116 50 116 50 109 50 c 0,173,174
 99 50 99 50 95 58 c 256,175,176
 90 66 90 66 90 67 c 0,177,178
 76 92 76 92 76 120 c 2,179,-1
 76 354 l 2,180,181
 76 365 76 365 84 371 c 0,182,183
 86 374 86 374 89 376 c 0,155,156
EndSplineSet
Validated: 1
EndChar

StartChar: one
Encoding: 49 49 8
Width: 640
GlyphClass: 1
Flags: W
LayerCount: 2
Fore
SplineSet
554 411 m 0,0,1
 546 402 546 402 531 402 c 0,2,3
 530 402 530 402 525 401.5 c 128,-1,4
 520 401 520 401 517 401 c 0,5,6
 499 401 499 401 487 410 c 0,7,8
 472 420 472 420 436 462 c 0,9,10
 430 468 430 468 431 477 c 0,11,12
 431 500 431 500 431 519 c 0,13,14
 431 541 431 541 431 558 c 128,-1,15
 431 575 431 575 431 597 c 128,-1,16
 431 619 431 619 431 646 c 0,17,18
 431 656 431 656 436 666 c 0,19,20
 462 724 462 724 480 763 c 0,21,22
 485 773 485 773 496 773 c 0,23,24
 502 773 502 773 508 770 c 0,25,26
 520 761 520 761 532 744 c 0,27,28
 546 726 546 726 552 711 c 0,29,30
 560 693 560 693 560 673 c 0,31,32
 560 671 560 671 560 669 c 2,33,-1
 560 433 l 2,34,35
 560 427 560 427 560 422 c 0,36,37
 558 415 558 415 554 411 c 0,0,1
554 379 m 0,38,39
 558 375 558 375 560 368 c 0,40,41
 561 362 561 362 560 357 c 2,42,-1
 560 120 l 2,43,44
 560 98 560 98 552 79 c 0,45,46
 544 61 544 61 532 46 c 0,47,48
 522 32 522 32 508 20 c 0,49,50
 502 16 502 16 496 16 c 0,51,52
 484 16 484 16 480 27 c 0,53,54
 478 30 478 30 460 70 c 128,-1,55
 442 110 442 110 436 124 c 0,56,57
 431 134 431 134 431 144 c 0,58,59
 431 170 431 170 431 192.5 c 128,-1,60
 431 215 431 215 431 232 c 128,-1,61
 431 249 431 249 431 271 c 0,62,63
 431 289 431 289 431 313 c 0,64,65
 431 321 431 321 436 327 c 0,66,67
 471 370 471 370 487 380 c 0,68,69
 500 389 500 389 517 389 c 0,70,71
 520 389 520 389 525 388.5 c 128,-1,72
 530 388 530 388 531 388 c 0,73,74
 546 388 546 388 554 379 c 0,38,39
EndSplineSet
Validated: 1
EndChar

StartChar: two
Encoding: 50 50 9
Width: 640
GlyphClass: 1
Flags: W
LayerCount: 2
Fore
SplineSet
209 449 m 0,0,1
 224 458 224 458 241 458 c 2,2,-1
 417 458 l 2,3,4
 425 458 425 458 428 454 c 0,5,6
 440 440 440 440 465 413 c 0,7,8
 471 406 471 406 472 395 c 128,-1,9
 473 384 473 384 464 375 c 0,10,11
 446 358 446 358 429 340 c 0,12,13
 423 334 423 334 414 334 c 2,14,-1
 239 334 l 2,15,16
 225 334 225 334 211 341 c 0,17,18
 195 349 195 349 150 376 c 0,19,20
 141 381 141 381 140 395 c 0,21,22
 139 406 139 406 150 413 c 0,23,24
 156 416 156 416 177.5 429.5 c 128,-1,25
 199 443 199 443 209 449 c 0,0,1
554 411 m 0,26,27
 546 402 546 402 531 402 c 0,28,29
 530 402 530 402 525 401.5 c 128,-1,30
 520 401 520 401 517 401 c 0,31,32
 499 401 499 401 487 410 c 0,33,34
 472 420 472 420 436 462 c 0,35,36
 430 468 430 468 431 477 c 0,37,38
 431 500 431 500 431 519 c 0,39,40
 431 541 431 541 431 558 c 128,-1,41
 431 575 431 575 431 597 c 128,-1,42
 431 619 431 619 431 646 c 0,43,44
 431 656 431 656 436 666 c 0,45,46
 462 724 462 724 480 763 c 0,47,48
 485 773 485 773 496 773 c 0,49,50
 502 773 502 773 508 770 c 0,51,52
 520 761 520 761 532 744 c 0,53,54
 546 726 546 726 552 711 c 0,55,56
 560 693 560 693 560 673 c 0,57,58
 560 671 560 671 560 669 c 2,59,-1
 560 433 l 2,60,61
 560 427 560 427 560 422 c 0,62,63
 558 415 558 415 554 411 c 0,26,27
120 751 m 0,64,65
 118 757 118 757 120 760 c 128,-1,66
 122 763 122 763 129 770 c 0,67,68
 133 774 133 774 141 779 c 0,69,70
 158 791 158 791 179 791 c 2,71,-1
 442 791 l 1,72,-1
 456 790 l 2,73,74
 457 790 457 790 459 789.5 c 128,-1,75
 461 789 461 789 463 789 c 0,76,77
 469 788 469 788 473 784 c 0,78,79
 478 779 478 779 476 773 c 0,80,81
 472 765 472 765 432 674 c 0,82,83
 427 663 427 663 415 663 c 2,84,-1
 216 663 l 2,85,86
 206 663 206 663 200 670 c 0,87,88
 123 745 123 745 120 751 c 0,64,65
120 42 m 0,89,90
 123 48 123 48 200 123 c 0,91,92
 206 129 206 129 216 129 c 2,93,-1
 415 129 l 2,94,95
 427 129 427 129 432 119 c 0,96,97
 473 28 473 28 476 19 c 0,98,99
 478 13 478 13 473 8 c 0,100,101
 469 4 469 4 463 3 c 0,102,103
 462 3 462 3 459 3 c 128,-1,104
 456 3 456 3 456 3 c 2,105,-1
 442 2 l 1,106,-1
 179 2 l 2,107,108
 158 2 158 2 141 14 c 0,109,110
 133 19 133 19 129 23 c 0,111,112
 122 30 122 30 120 33 c 128,-1,113
 118 36 118 36 120 42 c 0,89,90
89 376 m 0,114,115
 91 378 91 378 97 380 c 128,-1,116
 103 382 103 382 111 383 c 0,117,118
 120 383 120 383 128 379 c 0,119,120
 135 375 135 375 161.5 359.5 c 128,-1,121
 188 344 188 344 197 339 c 0,122,123
 205 335 205 335 205 326 c 2,124,-1
 205 151 l 2,125,126
 205 138 205 138 196 130 c 0,127,128
 186 120 186 120 155 89.5 c 128,-1,129
 124 59 124 59 120 55 c 0,130,131
 116 50 116 50 109 50 c 0,132,133
 99 50 99 50 95 58 c 256,134,135
 90 66 90 66 90 67 c 0,136,137
 76 92 76 92 76 120 c 2,138,-1
 76 354 l 2,139,140
 76 365 76 365 84 371 c 0,141,142
 86 374 86 374 89 376 c 0,114,115
EndSplineSet
Validated: 1
EndChar

StartChar: three
Encoding: 51 51 10
Width: 640
GlyphClass: 1
Flags: W
LayerCount: 2
Fore
SplineSet
209 449 m 0,0,1
 224 458 224 458 241 458 c 2,2,-1
 417 458 l 2,3,4
 425 458 425 458 428 454 c 0,5,6
 440 440 440 440 465 413 c 0,7,8
 471 406 471 406 472 395 c 128,-1,9
 473 384 473 384 464 375 c 0,10,11
 446 358 446 358 429 340 c 0,12,13
 423 334 423 334 414 334 c 2,14,-1
 239 334 l 2,15,16
 225 334 225 334 211 341 c 0,17,18
 195 349 195 349 150 376 c 0,19,20
 141 381 141 381 140 395 c 0,21,22
 139 406 139 406 150 413 c 0,23,24
 156 416 156 416 177.5 429.5 c 128,-1,25
 199 443 199 443 209 449 c 0,0,1
554 411 m 0,26,27
 546 402 546 402 531 402 c 0,28,29
 530 402 530 402 525 401.5 c 128,-1,30
 520 401 520 401 517 401 c 0,31,32
 499 401 499 401 487 410 c 0,33,34
 472 420 472 420 436 462 c 0,35,36
 430 468 430 468 431 477 c 0,37,38
 431 500 431 500 431 519 c 0,39,40
 431 541 431 541 431 558 c 128,-1,41
 431 575 431 575 431 597 c 128,-1,42
 431 619 431 619 431 646 c 0,43,44
 431 656 431 656 436 666 c 0,45,46
 462 724 462 724 480 763 c 0,47,48
 485 773 485 773 496 773 c 0,49,50
 502 773 502 773 508 770 c 0,51,52
 520 761 520 761 532 744 c 0,53,54
 546 726 546 726 552 711 c 0,55,56
 560 693 560 693 560 673 c 0,57,58
 560 671 560 671 560 669 c 2,59,-1
 560 433 l 2,60,61
 560 427 560 427 560 422 c 0,62,63
 558 415 558 415 554 411 c 0,26,27
120 751 m 0,64,65
 118 757 118 757 120 760 c 128,-1,66
 122 763 122 763 129 770 c 0,67,68
 133 774 133 774 141 779 c 0,69,70
 158 791 158 791 179 791 c 2,71,-1
 442 791 l 1,72,-1
 456 790 l 2,73,74
 457 790 457 790 459 789.5 c 128,-1,75
 461 789 461 789 463 789 c 0,76,77
 469 788 469 788 473 784 c 0,78,79
 478 779 478 779 476 773 c 0,80,81
 472 765 472 765 432 674 c 0,82,83
 427 663 427 663 415 663 c 2,84,-1
 216 663 l 2,85,86
 206 663 206 663 200 670 c 0,87,88
 123 745 123 745 120 751 c 0,64,65
554 379 m 0,89,90
 558 375 558 375 560 368 c 0,91,92
 561 362 561 362 560 357 c 2,93,-1
 560 120 l 2,94,95
 560 98 560 98 552 79 c 0,96,97
 544 61 544 61 532 46 c 0,98,99
 522 32 522 32 508 20 c 0,100,101
 502 16 502 16 496 16 c 0,102,103
 484 16 484 16 480 27 c 0,104,105
 478 30 478 30 460 70 c 128,-1,106
 442 110 442 110 436 124 c 0,107,108
 431 134 431 134 431 144 c 0,109,110
 431 170 431 170 431 192.5 c 128,-1,111
 431 215 431 215 431 232 c 128,-1,112
 431 249 431 249 431 271 c 0,113,114
 431 289 431 289 431 313 c 0,115,116
 431 321 431 321 436 327 c 0,117,118
 471 370 471 370 487 380 c 0,119,120
 500 389 500 389 517 389 c 0,121,122
 520 389 520 389 525 388.5 c 128,-1,123
 530 388 530 388 531 388 c 0,124,125
 546 388 546 388 554 379 c 0,89,90
120 42 m 0,126,127
 123 48 123 48 200 123 c 0,128,129
 206 129 206 129 216 129 c 2,130,-1
 415 129 l 2,131,132
 427 129 427 129 432 119 c 0,133,134
 473 28 473 28 476 19 c 0,135,136
 478 13 478 13 473 8 c 0,137,138
 469 4 469 4 463 3 c 0,139,140
 462 3 462 3 459 3 c 128,-1,141
 456 3 456 3 456 3 c 2,142,-1
 442 2 l 1,143,-1
 179 2 l 2,144,145
 158 2 158 2 141 14 c 0,146,147
 133 19 133 19 129 23 c 0,148,149
 122 30 122 30 120 33 c 128,-1,150
 118 36 118 36 120 42 c 0,126,127
EndSplineSet
Validated: 1
EndChar

StartChar: four
Encoding: 52 52 11
Width: 640
GlyphClass: 1
Flags: W
LayerCount: 2
Fore
SplineSet
209 449 m 0,0,1
 224 458 224 458 241 458 c 2,2,-1
 417 458 l 2,3,4
 425 458 425 458 428 454 c 0,5,6
 440 440 440 440 465 413 c 0,7,8
 471 406 471 406 472 395 c 128,-1,9
 473 384 473 384 464 375 c 0,10,11
 446 358 446 358 429 340 c 0,12,13
 423 334 423 334 414 334 c 2,14,-1
 239 334 l 2,15,16
 225 334 225 334 211 341 c 0,17,18
 195 349 195 349 150 376 c 0,19,20
 141 381 141 381 140 395 c 0,21,22
 139 406 139 406 150 413 c 0,23,24
 156 416 156 416 177.5 429.5 c 128,-1,25
 199 443 199 443 209 449 c 0,0,1
554 411 m 0,26,27
 546 402 546 402 531 402 c 0,28,29
 530 402 530 402 525 401.5 c 128,-1,30
 520 401 520 401 517 401 c 0,31,32
 499 401 499 401 487 410 c 0,33,34
 472 420 472 420 436 462 c 0,35,36
 430 468 430 468 431 477 c 0,37,38
 431 500 431 500 431 519 c 0,39,40
 431 541 431 541 431 558 c 128,-1,41
 431 575 431 575 431 597 c 128,-1,42
 431 619 431 619 431 646 c 0,43,44
 431 656 431 656 436 666 c 0,45,46
 462 724 462 724 480 763 c 0,47,48
 485 773 485 773 496 773 c 0,49,50
 502 773 502 773 508 770 c 0,51,52
 520 761 520 761 532 744 c 0,53,54
 546 726 546 726 552 711 c 0,55,56
 560 693 560 693 560 673 c 0,57,58
 560 671 560 671 560 669 c 2,59,-1
 560 433 l 2,60,61
 560 427 560 427 560 422 c 0,62,63
 558 415 558 415 554 411 c 0,26,27
89 416 m 0,64,65
 86 418 86 418 84 420 c 0,66,67
 76 427 76 427 76 438 c 2,68,-1
 76 672 l 2,69,70
 76 701 76 701 90 725 c 0,71,72
 90 726 90 726 95 735 c 0,73,74
 100 743 100 743 109 743 c 0,75,76
 115 743 115 743 120 738 c 0,77,78
 125 734 125 734 155 703.5 c 128,-1,79
 185 673 185 673 196 663 c 0,80,81
 206 653 206 653 205 640 c 2,82,-1
 205 467 l 2,83,84
 205 458 205 458 197 454 c 0,85,86
 188 448 188 448 161.5 433 c 128,-1,87
 135 418 135 418 128 414 c 0,88,89
 120 410 120 410 111 410 c 0,90,91
 104 410 104 410 97 412 c 0,92,93
 91 414 91 414 89 416 c 0,64,65
554 379 m 0,94,95
 558 375 558 375 560 368 c 0,96,97
 561 362 561 362 560 357 c 2,98,-1
 560 120 l 2,99,100
 560 98 560 98 552 79 c 0,101,102
 544 61 544 61 532 46 c 0,103,104
 522 32 522 32 508 20 c 0,105,106
 502 16 502 16 496 16 c 0,107,108
 484 16 484 16 480 27 c 0,109,110
 478 30 478 30 460 70 c 128,-1,111
 442 110 442 110 436 124 c 0,112,113
 431 134 431 134 431 144 c 0,114,115
 431 170 431 170 431 192.5 c 128,-1,116
 431 215 431 215 431 232 c 128,-1,117
 431 249 431 249 431 271 c 0,118,119
 431 289 431 289 431 313 c 0,120,121
 431 321 431 321 436 327 c 0,122,123
 471 370 471 370 487 380 c 0,124,125
 500 389 500 389 517 389 c 0,126,127
 520 389 520 389 525 388.5 c 128,-1,128
 530 388 530 388 531 388 c 0,129,130
 546 388 546 388 554 379 c 0,94,95
EndSplineSet
Validated: 1
EndChar

StartChar: five
Encoding: 53 53 12
Width: 640
GlyphClass: 1
Flags: W
LayerCount: 2
Fore
SplineSet
209 449 m 0,0,1
 224 458 224 458 241 458 c 2,2,-1
 417 458 l 2,3,4
 425 458 425 458 428 454 c 0,5,6
 440 440 440 440 465 413 c 0,7,8
 471 406 471 406 472 395 c 128,-1,9
 473 384 473 384 464 375 c 0,10,11
 446 358 446 358 429 340 c 0,12,13
 423 334 423 334 414 334 c 2,14,-1
 239 334 l 2,15,16
 225 334 225 334 211 341 c 0,17,18
 195 349 195 349 150 376 c 0,19,20
 141 381 141 381 140 395 c 0,21,22
 139 406 139 406 150 413 c 0,23,24
 156 416 156 416 177.5 429.5 c 128,-1,25
 199 443 199 443 209 449 c 0,0,1
89 416 m 0,26,27
 86 418 86 418 84 420 c 0,28,29
 76 427 76 427 76 438 c 2,30,-1
 76 672 l 2,31,32
 76 701 76 701 90 725 c 0,33,34
 90 726 90 726 95 735 c 0,35,36
 100 743 100 743 109 743 c 0,37,38
 115 743 115 743 120 738 c 0,39,40
 125 734 125 734 155 703.5 c 128,-1,41
 185 673 185 673 196 663 c 0,42,43
 206 653 206 653 205 640 c 2,44,-1
 205 467 l 2,45,46
 205 458 205 458 197 454 c 0,47,48
 188 448 188 448 161.5 433 c 128,-1,49
 135 418 135 418 128 414 c 0,50,51
 120 410 120 410 111 410 c 0,52,53
 104 410 104 410 97 412 c 0,54,55
 91 414 91 414 89 416 c 0,26,27
120 751 m 0,56,57
 118 757 118 757 120 760 c 128,-1,58
 122 763 122 763 129 770 c 0,59,60
 133 774 133 774 141 779 c 0,61,62
 158 791 158 791 179 791 c 2,63,-1
 442 791 l 1,64,-1
 456 790 l 2,65,66
 457 790 457 790 459 789.5 c 128,-1,67
 461 789 461 789 463 789 c 0,68,69
 469 788 469 788 473 784 c 0,70,71
 478 779 478 779 476 773 c 0,72,73
 472 765 472 765 432 674 c 0,74,75
 427 663 427 663 415 663 c 2,76,-1
 216 663 l 2,77,78
 206 663 206 663 200 670 c 0,79,80
 123 745 123 745 120 751 c 0,56,57
554 379 m 0,81,82
 558 375 558 375 560 368 c 0,83,84
 561 362 561 362 560 357 c 2,85,-1
 560 120 l 2,86,87
 560 98 560 98 552 79 c 0,88,89
 544 61 544 61 532 46 c 0,90,91
 522 32 522 32 508 20 c 0,92,93
 502 16 502 16 496 16 c 0,94,95
 484 16 484 16 480 27 c 0,96,97
 478 30 478 30 460 70 c 128,-1,98
 442 110 442 110 436 124 c 0,99,100
 431 134 431 134 431 144 c 0,101,102
 431 170 431 170 431 192.5 c 128,-1,103
 431 215 431 215 431 232 c 128,-1,104
 431 249 431 249 431 271 c 0,105,106
 431 289 431 289 431 313 c 0,107,108
 431 321 431 321 436 327 c 0,109,110
 471 370 471 370 487 380 c 0,111,112
 500 389 500 389 517 389 c 0,113,114
 520 389 520 389 525 388.5 c 128,-1,115
 530 388 530 388 531 388 c 0,116,117
 546 388 546 388 554 379 c 0,81,82
120 42 m 0,118,119
 123 48 123 48 200 123 c 0,120,121
 206 129 206 129 216 129 c 2,122,-1
 415 129 l 2,123,124
 427 129 427 129 432 119 c 0,125,126
 473 28 473 28 476 19 c 0,127,128
 478 13 478 13 473 8 c 0,129,130
 469 4 469 4 463 3 c 0,131,132
 462 3 462 3 459 3 c 128,-1,133
 456 3 456 3 456 3 c 2,134,-1
 442 2 l 1,135,-1
 179 2 l 2,136,137
 158 2 158 2 141 14 c 0,138,139
 133 19 133 19 129 23 c 0,140,141
 122 30 122 30 120 33 c 128,-1,142
 118 36 118 36 120 42 c 0,118,119
EndSplineSet
Validated: 1
EndChar

StartChar: six
Encoding: 54 54 13
Width: 640
GlyphClass: 1
Flags: W
LayerCount: 2
Fore
SplineSet
209 449 m 0,0,1
 224 458 224 458 241 458 c 2,2,-1
 417 458 l 2,3,4
 425 458 425 458 428 454 c 0,5,6
 440 440 440 440 465 413 c 0,7,8
 471 406 471 406 472 395 c 128,-1,9
 473 384 473 384 464 375 c 0,10,11
 446 358 446 358 429 340 c 0,12,13
 423 334 423 334 414 334 c 2,14,-1
 239 334 l 2,15,16
 225 334 225 334 211 341 c 0,17,18
 195 349 195 349 150 376 c 0,19,20
 141 381 141 381 140 395 c 0,21,22
 139 406 139 406 150 413 c 0,23,24
 156 416 156 416 177.5 429.5 c 128,-1,25
 199 443 199 443 209 449 c 0,0,1
89 416 m 0,26,27
 86 418 86 418 84 420 c 0,28,29
 76 427 76 427 76 438 c 2,30,-1
 76 672 l 2,31,32
 76 701 76 701 90 725 c 0,33,34
 90 726 90 726 95 735 c 0,35,36
 100 743 100 743 109 743 c 0,37,38
 115 743 115 743 120 738 c 0,39,40
 125 734 125 734 155 703.5 c 128,-1,41
 185 673 185 673 196 663 c 0,42,43
 206 653 206 653 205 640 c 2,44,-1
 205 467 l 2,45,46
 205 458 205 458 197 454 c 0,47,48
 188 448 188 448 161.5 433 c 128,-1,49
 135 418 135 418 128 414 c 0,50,51
 120 410 120 410 111 410 c 0,52,53
 104 410 104 410 97 412 c 0,54,55
 91 414 91 414 89 416 c 0,26,27
120 751 m 0,56,57
 118 757 118 757 120 760 c 128,-1,58
 122 763 122 763 129 770 c 0,59,60
 133 774 133 774 141 779 c 0,61,62
 158 791 158 791 179 791 c 2,63,-1
 442 791 l 1,64,-1
 456 790 l 2,65,66
 457 790 457 790 459 789.5 c 128,-1,67
 461 789 461 789 463 789 c 0,68,69
 469 788 469 788 473 784 c 0,70,71
 478 779 478 779 476 773 c 0,72,73
 472 765 472 765 432 674 c 0,74,75
 427 663 427 663 415 663 c 2,76,-1
 216 663 l 2,77,78
 206 663 206 663 200 670 c 0,79,80
 123 745 123 745 120 751 c 0,56,57
554 379 m 0,81,82
 558 375 558 375 560 368 c 0,83,84
 561 362 561 362 560 357 c 2,85,-1
 560 120 l 2,86,87
 560 98 560 98 552 79 c 0,88,89
 544 61 544 61 532 46 c 0,90,91
 522 32 522 32 508 20 c 0,92,93
 502 16 502 16 496 16 c 0,94,95
 484 16 484 16 480 27 c 0,96,97
 478 30 478 30 460 70 c 128,-1,98
 442 110 442 110 436 124 c 0,99,100
 431 134 431 134 431 144 c 0,101,102
 431 170 431 170 431 192.5 c 128,-1,103
 431 215 431 215 431 232 c 128,-1,104
 431 249 431 249 431 271 c 0,105,106
 431 289 431 289 431 313 c 0,107,108
 431 321 431 321 436 327 c 0,109,110
 471 370 471 370 487 380 c 0,111,112
 500 389 500 389 517 389 c 0,113,114
 520 389 520 389 525 388.5 c 128,-1,115
 530 388 530 388 531 388 c 0,116,117
 546 388 546 388 554 379 c 0,81,82
120 42 m 0,118,119
 123 48 123 48 200 123 c 0,120,121
 206 129 206 129 216 129 c 2,122,-1
 415 129 l 2,123,124
 427 129 427 129 432 119 c 0,125,126
 473 28 473 28 476 19 c 0,127,128
 478 13 478 13 473 8 c 0,129,130
 469 4 469 4 463 3 c 0,131,132
 462 3 462 3 459 3 c 128,-1,133
 456 3 456 3 456 3 c 2,134,-1
 442 2 l 1,135,-1
 179 2 l 2,136,137
 158 2 158 2 141 14 c 0,138,139
 133 19 133 19 129 23 c 0,140,141
 122 30 122 30 120 33 c 128,-1,142
 118 36 118 36 120 42 c 0,118,119
89 376 m 0,143,144
 91 378 91 378 97 380 c 128,-1,145
 103 382 103 382 111 383 c 0,146,147
 120 383 120 383 128 379 c 0,148,149
 135 375 135 375 161.5 359.5 c 128,-1,150
 188 344 188 344 197 339 c 0,151,152
 205 335 205 335 205 326 c 2,153,-1
 205 151 l 2,154,155
 205 138 205 138 196 130 c 0,156,157
 186 120 186 120 155 89.5 c 128,-1,158
 124 59 124 59 120 55 c 0,159,160
 116 50 116 50 109 50 c 0,161,162
 99 50 99 50 95 58 c 256,163,164
 90 66 90 66 90 67 c 0,165,166
 76 92 76 92 76 120 c 2,167,-1
 76 354 l 2,168,169
 76 365 76 365 84 371 c 0,170,171
 86 374 86 374 89 376 c 0,143,144
EndSplineSet
Validated: 1
EndChar

StartChar: seven
Encoding: 55 55 14
Width: 640
GlyphClass: 1
Flags: W
LayerCount: 2
Fore
SplineSet
554 411 m 0,0,1
 546 402 546 402 531 402 c 0,2,3
 530 402 530 402 525 401.5 c 128,-1,4
 520 401 520 401 517 401 c 0,5,6
 499 401 499 401 487 410 c 0,7,8
 472 420 472 420 436 462 c 0,9,10
 430 468 430 468 431 477 c 0,11,12
 431 500 431 500 431 519 c 0,13,14
 431 541 431 541 431 558 c 128,-1,15
 431 575 431 575 431 597 c 128,-1,16
 431 619 431 619 431 646 c 0,17,18
 431 656 431 656 436 666 c 0,19,20
 462 724 462 724 480 763 c 0,21,22
 485 773 485 773 496 773 c 0,23,24
 502 773 502 773 508 770 c 0,25,26
 520 761 520 761 532 744 c 0,27,28
 546 726 546 726 552 711 c 0,29,30
 560 693 560 693 560 673 c 0,31,32
 560 671 560 671 560 669 c 2,33,-1
 560 433 l 2,34,35
 560 427 560 427 560 422 c 0,36,37
 558 415 558 415 554 411 c 0,0,1
120 751 m 0,38,39
 118 757 118 757 120 760 c 128,-1,40
 122 763 122 763 129 770 c 0,41,42
 133 774 133 774 141 779 c 0,43,44
 158 791 158 791 179 791 c 2,45,-1
 442 791 l 1,46,-1
 456 790 l 2,47,48
 457 790 457 790 459 789.5 c 128,-1,49
 461 789 461 789 463 789 c 0,50,51
 469 788 469 788 473 784 c 0,52,53
 478 779 478 779 476 773 c 0,54,55
 472 765 472 765 432 674 c 0,56,57
 427 663 427 663 415 663 c 2,58,-1
 216 663 l 2,59,60
 206 663 206 663 200 670 c 0,61,62
 123 745 123 745 120 751 c 0,38,39
554 379 m 0,63,64
 558 375 558 375 560 368 c 0,65,66
 561 362 561 362 560 357 c 2,67,-1
 560 120 l 2,68,69
 560 98 560 98 552 79 c 0,70,71
 544 61 544 61 532 46 c 0,72,73
 522 32 522 32 508 20 c 0,74,75
 502 16 502 16 496 16 c 0,76,77
 484 16 484 16 480 27 c 0,78,79
 478 30 478 30 460 70 c 128,-1,80
 442 110 442 110 436 124 c 0,81,82
 431 134 431 134 431 144 c 0,83,84
 431 170 431 170 431 192.5 c 128,-1,85
 431 215 431 215 431 232 c 128,-1,86
 431 249 431 249 431 271 c 0,87,88
 431 289 431 289 431 313 c 0,89,90
 431 321 431 321 436 327 c 0,91,92
 471 370 471 370 487 380 c 0,93,94
 500 389 500 389 517 389 c 0,95,96
 520 389 520 389 525 388.5 c 128,-1,97
 530 388 530 388 531 388 c 0,98,99
 546 388 546 388 554 379 c 0,63,64
EndSplineSet
Validated: 1
EndChar

StartChar: eight
Encoding: 56 56 15
Width: 640
GlyphClass: 1
Flags: W
LayerCount: 2
Fore
SplineSet
209 449 m 0,0,1
 224 458 224 458 241 458 c 2,2,-1
 417 458 l 2,3,4
 425 458 425 458 428 454 c 0,5,6
 440 440 440 440 465 413 c 0,7,8
 471 406 471 406 472 395 c 128,-1,9
 473 384 473 384 464 375 c 0,10,11
 446 358 446 358 429 340 c 0,12,13
 423 334 423 334 414 334 c 2,14,-1
 239 334 l 2,15,16
 225 334 225 334 211 341 c 0,17,18
 195 349 195 349 150 376 c 0,19,20
 141 381 141 381 140 395 c 0,21,22
 139 406 139 406 150 413 c 0,23,24
 156 416 156 416 177.5 429.5 c 128,-1,25
 199 443 199 443 209 449 c 0,0,1
554 411 m 0,26,27
 546 402 546 402 531 402 c 0,28,29
 530 402 530 402 525 401.5 c 128,-1,30
 520 401 520 401 517 401 c 0,31,32
 499 401 499 401 487 410 c 0,33,34
 472 420 472 420 436 462 c 0,35,36
 430 468 430 468 431 477 c 0,37,38
 431 500 431 500 431 519 c 0,39,40
 431 541 431 541 431 558 c 128,-1,41
 431 575 431 575 431 597 c 128,-1,42
 431 619 431 619 431 646 c 0,43,44
 431 656 431 656 436 666 c 0,45,46
 462 724 462 724 480 763 c 0,47,48
 485 773 485 773 496 773 c 0,49,50
 502 773 502 773 508 770 c 0,51,52
 520 761 520 761 532 744 c 0,53,54
 546 726 546 726 552 711 c 0,55,56
 560 693 560 693 560 673 c 0,57,58
 560 671 560 671 560 669 c 2,59,-1
 560 433 l 2,60,61
 560 427 560 427 560 422 c 0,62,63
 558 415 558 415 554 411 c 0,26,27
89 416 m 0,64,65
 86 418 86 418 84 420 c 0,66,67
 76 427 76 427 76 438 c 2,68,-1
 76 672 l 2,69,70
 76 701 76 701 90 725 c 0,71,72
 90 726 90 726 95 735 c 0,73,74
 100 743 100 743 109 743 c 0,75,76
 115 743 115 743 120 738 c 0,77,78
 125 734 125 734 155 703.5 c 128,-1,79
 185 673 185 673 196 663 c 0,80,81
 206 653 206 653 205 640 c 2,82,-1
 205 467 l 2,83,84
 205 458 205 458 197 454 c 0,85,86
 188 448 188 448 161.5 433 c 128,-1,87
 135 418 135 418 128 414 c 0,88,89
 120 410 120 410 111 410 c 0,90,91
 104 410 104 410 97 412 c 0,92,93
 91 414 91 414 89 416 c 0,64,65
120 751 m 0,94,95
 118 757 118 757 120 760 c 128,-1,96
 122 763 122 763 129 770 c 0,97,98
 133 774 133 774 141 779 c 0,99,100
 158 791 158 791 179 791 c 2,101,-1
 442 791 l 1,102,-1
 456 790 l 2,103,104
 457 790 457 790 459 789.5 c 128,-1,105
 461 789 461 789 463 789 c 0,106,107
 469 788 469 788 473 784 c 0,108,109
 478 779 478 779 476 773 c 0,110,111
 472 765 472 765 432 674 c 0,112,113
 427 663 427 663 415 663 c 2,114,-1
 216 663 l 2,115,116
 206 663 206 663 200 670 c 0,117,118
 123 745 123 745 120 751 c 0,94,95
554 379 m 0,119,120
 558 375 558 375 560 368 c 0,121,122
 561 362 561 362 560 357 c 2,123,-1
 560 120 l 2,124,125
 560 98 560 98 552 79 c 0,126,127
 544 61 544 61 532 46 c 0,128,129
 522 32 522 32 508 20 c 0,130,131
 502 16 502 16 496 16 c 0,132,133
 484 16 484 16 480 27 c 0,134,135
 478 30 478 30 460 70 c 128,-1,136
 442 110 442 110 436 124 c 0,137,138
 431 134 431 134 431 144 c 0,139,140
 431 170 431 170 431 192.5 c 128,-1,141
 431 215 431 215 431 232 c 128,-1,142
 431 249 431 249 431 271 c 0,143,144
 431 289 431 289 431 313 c 0,145,146
 431 321 431 321 436 327 c 0,147,148
 471 370 471 370 487 380 c 0,149,150
 500 389 500 389 517 389 c 0,151,152
 520 389 520 389 525 388.5 c 128,-1,153
 530 388 530 388 531 388 c 0,154,155
 546 388 546 388 554 379 c 0,119,120
120 42 m 0,156,157
 123 48 123 48 200 123 c 0,158,159
 206 129 206 129 216 129 c 2,160,-1
 415 129 l 2,161,162
 427 129 427 129 432 119 c 0,163,164
 473 28 473 28 476 19 c 0,165,166
 478 13 478 13 473 8 c 0,167,168
 469 4 469 4 463 3 c 0,169,170
 462 3 462 3 459 3 c 128,-1,171
 456 3 456 3 456 3 c 2,172,-1
 442 2 l 1,173,-1
 179 2 l 2,174,175
 158 2 158 2 141 14 c 0,176,177
 133 19 133 19 129 23 c 0,178,179
 122 30 122 30 120 33 c 128,-1,180
 118 36 118 36 120 42 c 0,156,157
89 376 m 0,181,182
 91 378 91 378 97 380 c 128,-1,183
 103 382 103 382 111 383 c 0,184,185
 120 383 120 383 128 379 c 0,186,187
 135 375 135 375 161.5 359.5 c 128,-1,188
 188 344 188 344 197 339 c 0,189,190
 205 335 205 335 205 326 c 2,191,-1
 205 151 l 2,192,193
 205 138 205 138 196 130 c 0,194,195
 186 120 186 120 155 89.5 c 128,-1,196
 124 59 124 59 120 55 c 0,197,198
 116 50 116 50 109 50 c 0,199,200
 99 50 99 50 95 58 c 256,201,202
 90 66 90 66 90 67 c 0,203,204
 76 92 76 92 76 120 c 2,205,-1
 76 354 l 2,206,207
 76 365 76 365 84 371 c 0,208,209
 86 374 86 374 89 376 c 0,181,182
EndSplineSet
Validated: 1
EndChar

StartChar: nine
Encoding: 57 57 16
Width: 640
GlyphClass: 1
Flags: W
LayerCount: 2
Fore
SplineSet
209 449 m 0,0,1
 224 458 224 458 241 458 c 2,2,-1
 417 458 l 2,3,4
 425 458 425 458 428 454 c 0,5,6
 440 440 440 440 465 413 c 0,7,8
 471 406 471 406 472 395 c 128,-1,9
 473 384 473 384 464 375 c 0,10,11
 446 358 446 358 429 340 c 0,12,13
 423 334 423 334 414 334 c 2,14,-1
 239 334 l 2,15,16
 225 334 225 334 211 341 c 0,17,18
 195 349 195 349 150 376 c 0,19,20
 141 381 141 381 140 395 c 0,21,22
 139 406 139 406 150 413 c 0,23,24
 156 416 156 416 177.5 429.5 c 128,-1,25
 199 443 199 443 209 449 c 0,0,1
554 411 m 0,26,27
 546 402 546 402 531 402 c 0,28,29
 530 402 530 402 525 401.5 c 128,-1,30
 520 401 520 401 517 401 c 0,31,32
 499 401 499 401 487 410 c 0,33,34
 472 420 472 420 436 462 c 0,35,36
 430 468 430 468 431 477 c 0,37,38
 431 500 431 500 431 519 c 0,39,40
 431 541 431 541 431 558 c 128,-1,41
 431 575 431 575 431 597 c 128,-1,42
 431 619 431 619 431 646 c 0,43,44
 431 656 431 656 436 666 c 0,45,46
 462 724 462 724 480 763 c 0,47,48
 485 773 485 773 496 773 c 0,49,50
 502 773 502 773 508 770 c 0,51,52
 520 761 520 761 532 744 c 0,53,54
 546 726 546 726 552 711 c 0,55,56
 560 693 560 693 560 673 c 0,57,58
 560 671 560 671 560 669 c 2,59,-1
 560 433 l 2,60,61
 560 427 560 427 560 422 c 0,62,63
 558 415 558 415 554 411 c 0,26,27
89 416 m 0,64,65
 86 418 86 418 84 420 c 0,66,67
 76 427 76 427 76 438 c 2,68,-1
 76 672 l 2,69,70
 76 701 76 701 90 725 c 0,71,72
 90 726 90 726 95 735 c 0,73,74
 100 743 100 743 109 743 c 0,75,76
 115 743 115 743 120 738 c 0,77,78
 125 734 125 734 155 703.5 c 128,-1,79
 185 673 185 673 196 663 c 0,80,81
 206 653 206 653 205 640 c 2,82,-1
 205 467 l 2,83,84
 205 458 205 458 197 454 c 0,85,86
 188 448 188 448 161.5 433 c 128,-1,87
 135 418 135 418 128 414 c 0,88,89
 120 410 120 410 111 410 c 0,90,91
 104 410 104 410 97 412 c 0,92,93
 91 414 91 414 89 416 c 0,64,65
120 751 m 0,94,95
 118 757 118 757 120 760 c 128,-1,96
 122 763 122 763 129 770 c 0,97,98
 133 774 133 774 141 779 c 0,99,100
 158 791 158 791 179 791 c 2,101,-1
 442 791 l 1,102,-1
 456 790 l 2,103,104
 457 790 457 790 459 789.5 c 128,-1,105
 461 789 461 789 463 789 c 0,106,107
 469 788 469 788 473 784 c 0,108,109
 478 779 478 779 476 773 c 0,110,111
 472 765 472 765 432 674 c 0,112,113
 427 663 427 663 415 663 c 2,114,-1
 216 663 l 2,115,116
 206 663 206 663 200 670 c 0,117,118
 123 745 123 745 120 751 c 0,94,95
554 379 m 0,119,120
 558 375 558 375 560 368 c 0,121,122
 561 362 561 362 560 357 c 2,123,-1
 560 120 l 2,124,125
 560 98 560 98 552 79 c 0,126,127
 544 61 544 61 532 46 c 0,128,129
 522 32 522 32 508 20 c 0,130,131
 502 16 502 16 496 16 c 0,132,133
 484 16 484 16 480 27 c 0,134,135
 478 30 478 30 460 70 c 128,-1,136
 442 110 442 110 436 124 c 0,137,138
 431 134 431 134 431 144 c 0,139,140
 431 170 431 170 431 192.5 c 128,-1,141
 431 215 431 215 431 232 c 128,-1,142
 431 249 431 249 431 271 c 0,143,144
 431 289 431 289 431 313 c 0,145,146
 431 321 431 321 436 327 c 0,147,148
 471 370 471 370 487 380 c 0,149,150
 500 389 500 389 517 389 c 0,151,152
 520 389 520 389 525 388.5 c 128,-1,153
 530 388 530 388 531 388 c 0,154,155
 546 388 546 388 554 379 c 0,119,120
120 42 m 0,156,157
 123 48 123 48 200 123 c 0,158,159
 206 129 206 129 216 129 c 2,160,-1
 415 129 l 2,161,162
 427 129 427 129 432 119 c 0,163,164
 473 28 473 28 476 19 c 0,165,166
 478 13 478 13 473 8 c 0,167,168
 469 4 469 4 463 3 c 0,169,170
 462 3 462 3 459 3 c 128,-1,171
 456 3 456 3 456 3 c 2,172,-1
 442 2 l 1,173,-1
 179 2 l 2,174,175
 158 2 158 2 141 14 c 0,176,177
 133 19 133 19 129 23 c 0,178,179
 122 30 122 30 120 33 c 128,-1,180
 118 36 118 36 120 42 c 0,156,157
EndSplineSet
Validated: 1
EndChar

StartChar: A
Encoding: 65 65 17
Width: 800
GlyphClass: 1
Flags: W
LayerCount: 2
Fore
SplineSet
354 786 m 0,0,1
 367 786 367 786 385 786 c 0,2,3
 390 786 390 786 401.5 786 c 128,-1,4
 413 786 413 786 419 786 c 0,5,6
 430 786 430 786 438 786 c 1,7,8
 451 750 451 750 475 685.5 c 128,-1,9
 499 621 499 621 507 598 c 0,10,11
 539 511 539 511 639 237.5 c 128,-1,12
 739 -36 739 -36 794 -186 c 1,13,14
 782 -186 782 -186 759 -186 c 128,-1,15
 736 -186 736 -186 724 -186 c 2,16,-1
 654 -186 l 1,17,18
 641 -149 641 -149 614.5 -77 c 128,-1,19
 588 -5 588 -5 575 31 c 1,20,21
 488 31 488 31 400 31 c 128,-1,22
 312 31 312 31 225 31 c 1,23,24
 213 -1 213 -1 186.5 -74 c 128,-1,25
 160 -147 160 -147 146 -186 c 1,26,27
 84 -186 84 -186 64 -186 c 0,28,29
 27 -186 27 -186 -1 -186 c 1,30,31
 63 -10 63 -10 181.5 314.5 c 128,-1,32
 300 639 300 639 350 774 c 0,33,34
 350 775 350 775 351.5 779 c 128,-1,35
 353 783 353 783 354 786 c 0,0,1
400 480 m 1,36,37
 400 479 400 479 397 473 c 0,38,39
 383 433 383 433 346.5 333 c 128,-1,40
 310 233 310 233 290 178 c 1,41,42
 345 178 345 178 400 178 c 128,-1,43
 455 178 455 178 510 178 c 1,44,45
 498 213 498 213 475.5 273.5 c 128,-1,46
 453 334 453 334 434.5 384.5 c 128,-1,47
 416 435 416 435 400 480 c 1,36,37
EndSplineSet
Validated: 1
EndChar

StartChar: C
Encoding: 67 67 18
Width: 800
GlyphClass: 1
Flags: W
LayerCount: 2
Fore
SplineSet
390 786 m 0,0,1
 399 786 399 786 410 786 c 0,2,3
 413 786 413 786 419 786 c 128,-1,4
 425 786 425 786 428 786 c 0,5,6
 433 786 433 786 435 786 c 0,7,8
 471 786 471 786 505 779 c 0,9,10
 593 763 593 763 665 709 c 0,11,12
 740 652 740 652 780 567 c 1,13,14
 758 558 758 558 715.5 540.5 c 128,-1,15
 673 523 673 523 655 515 c 0,16,17
 651 514 651 514 649 513 c 0,18,19
 610 585 610 585 535 621 c 0,20,21
 484 645 484 645 428 645 c 0,22,23
 426 645 426 645 424.5 645 c 128,-1,24
 423 645 423 645 421 645 c 0,25,26
 342 645 342 645 278 599 c 0,27,28
 224 562 224 562 196 504 c 0,29,30
 172 455 172 455 171 400 c 2,31,-1
 171 200 l 2,32,33
 172 138 172 138 203 83 c 0,34,35
 239 19 239 19 304 -16 c 0,36,37
 356 -43 356 -43 415 -45 c 0,38,39
 423 -45 423 -45 425 -45 c 0,40,41
 442 -45 442 -45 454 -43 c 0,42,43
 515 -37 515 -37 567 -3 c 0,44,45
 619 32 619 32 649 87 c 0,46,47
 650 87 650 87 652 86 c 0,48,49
 672 78 672 78 715 60 c 128,-1,50
 758 42 758 42 780 33 c 1,51,52
 761 -8 761 -8 733 -43 c 0,53,54
 676 -114 676 -114 592 -152 c 0,55,56
 518 -186 518 -186 436 -186 c 0,57,58
 434 -186 434 -186 433 -186 c 0,59,60
 429 -186 429 -186 425 -186 c 256,61,62
 421 -186 421 -186 413.5 -186 c 128,-1,63
 406 -186 406 -186 402 -186 c 0,64,65
 375 -186 375 -186 357 -184 c 0,66,67
 260 -175 260 -175 179 -120 c 0,68,69
 100 -66 100 -66 56 19 c 0,70,71
 17 93 17 93 13 177 c 0,72,73
 13 186 13 186 13 200 c 0,74,75
 13 202 13 202 13 204.5 c 128,-1,76
 13 207 13 207 13 209 c 2,77,-1
 13 210 l 2,78,79
 13 232 13 232 13 275 c 128,-1,80
 13 318 13 318 13 339 c 0,81,82
 13 377 13 377 13 404 c 0,83,84
 13 443 13 443 20 480 c 0,85,86
 37 565 37 565 90 635 c 0,87,88
 150 714 150 714 242 754 c 0,89,90
 312 785 312 785 390 786 c 0,0,1
EndSplineSet
Validated: 1
EndChar

StartChar: D
Encoding: 68 68 19
Width: 800
GlyphClass: 1
Flags: W
LayerCount: 2
Fore
SplineSet
83 786 m 1,0,1
 126 786 126 786 185 786 c 2,2,-1
 369 786 l 2,3,4
 407 785 407 785 444 777 c 0,5,6
 531 759 531 759 600 704 c 0,7,8
 676 644 676 644 714 556 c 0,9,10
 745 484 745 484 745 405 c 0,11,12
 745 375 745 375 745 336 c 0,13,14
 745 313 745 313 745 266.5 c 128,-1,15
 745 220 745 220 745 196 c 0,16,17
 745 153 745 153 736 113 c 0,18,19
 718 30 718 30 665 -38 c 0,20,21
 607 -112 607 -112 522 -151 c 0,22,23
 449 -185 449 -185 368 -186 c 0,24,25
 353 -186 353 -186 324 -186 c 0,26,27
 300 -186 300 -186 253.5 -186 c 128,-1,28
 207 -186 207 -186 184 -186 c 0,29,30
 126 -186 126 -186 83 -186 c 1,31,-1
 83 786 l 1,0,1
224 645 m 1,32,-1
 224 -45 l 1,33,34
 236 -45 236 -45 259 -45 c 128,-1,35
 282 -45 282 -45 293 -45 c 2,36,-1
 362 -45 l 2,37,38
 417 -43 417 -43 467 -19 c 0,39,40
 527 11 527 11 565 67 c 0,41,42
 607 130 607 130 607 206 c 2,43,-1
 607 393 l 2,44,45
 607 394 607 394 607 394 c 2,46,47
 607 450 607 450 583 500 c 0,48,49
 557 558 557 558 505 596 c 0,50,51
 440 644 440 644 359 645 c 0,52,53
 332 645 332 645 292 645 c 2,54,-1
 224 645 l 1,32,-1
EndSplineSet
Validated: 1
EndChar

StartChar: G
Encoding: 71 71 20
Width: 850
GlyphClass: 1
Flags: W
LayerCount: 2
Fore
SplineSet
400 786 m 2,0,-1
 451 786 l 2,1,2
 485 785 485 785 517 779 c 0,3,4
 604 763 604 763 674 710 c 0,5,6
 750 653 750 653 791 567 c 1,7,8
 765 557 765 557 659 513 c 1,9,10
 620 585 620 585 546 620 c 0,11,12
 498 644 498 644 444 645 c 0,13,14
 440 645 440 645 434 645 c 128,-1,15
 428 645 428 645 425 645 c 0,16,17
 393 644 393 644 363 635 c 0,18,19
 307 619 307 619 264 581 c 0,20,21
 220 541 220 541 199 486 c 0,22,23
 181 442 181 442 181 395 c 0,24,25
 181 393 181 393 181 391 c 0,26,27
 181 381 181 381 181 361 c 0,28,29
 181 346 181 346 181 315 c 128,-1,30
 181 284 181 284 181 269 c 0,31,32
 181 233 181 233 181 201 c 0,33,34
 182 130 182 130 221 71 c 0,35,36
 258 13 258 13 318 -18 c 0,37,38
 369 -43 369 -43 426 -45 c 0,39,40
 442 -45 442 -45 442 -45 c 2,41,42
 524 -44 524 -44 590 7 c 0,43,44
 642 46 642 46 668 105 c 0,45,46
 688 150 688 150 689 200 c 0,47,48
 689 209 689 209 689 220 c 0,49,50
 689 224 689 224 689 231 c 128,-1,51
 689 238 689 238 689 242 c 256,52,53
 689 246 689 246 689 254 c 1,54,55
 663 254 663 254 638 254 c 2,56,-1
 448 254 l 1,57,58
 448 279 448 279 448 328.5 c 128,-1,59
 448 378 448 378 448 402 c 1,60,61
 505 402 505 402 583 402 c 0,62,63
 614 402 614 402 675.5 402 c 128,-1,64
 737 402 737 402 768 402 c 0,65,66
 807 402 807 402 827 402 c 1,67,68
 827 370 827 370 827 329 c 0,69,70
 827 313 827 313 827 282 c 128,-1,71
 827 251 827 251 827 236 c 0,72,73
 827 211 827 211 827 198 c 0,74,75
 827 197 827 197 827 195 c 0,76,77
 827 159 827 159 820 123 c 0,78,79
 804 37 804 37 750 -34 c 0,80,81
 693 -111 693 -111 606 -151 c 0,82,83
 532 -185 532 -185 449 -186 c 0,84,85
 447 -186 447 -186 441 -186 c 0,86,87
 437 -186 437 -186 428.5 -186 c 128,-1,88
 420 -186 420 -186 416 -186 c 0,89,90
 405 -186 405 -186 398 -186 c 0,91,92
 367 -185 367 -185 338 -180 c 0,93,94
 250 -165 250 -165 178 -112 c 0,95,96
 103 -56 103 -56 61 28 c 0,97,98
 24 105 24 105 23 192 c 0,99,100
 23 210 23 210 23 246.5 c 128,-1,101
 23 283 23 283 23 301 c 0,102,103
 23 367 23 367 23 410 c 0,104,105
 23 449 23 449 31 486 c 0,106,107
 51 576 51 576 111 648 c 256,108,109
 171 720 171 720 257 756 c 0,110,111
 325 785 325 785 400 786 c 2,0,-1
EndSplineSet
Validated: 1
EndChar

StartChar: H
Encoding: 72 72 21
Width: 800
GlyphClass: 1
Flags: W
LayerCount: 2
Fore
SplineSet
52 786 m 1,0,1
 63 786 63 786 86.5 786 c 128,-1,2
 110 786 110 786 122 786 c 0,3,4
 164 786 164 786 193 786 c 1,5,6
 193 728 193 728 193 646 c 0,7,8
 193 624 193 624 193 580.5 c 128,-1,9
 193 537 193 537 193 515 c 0,10,11
 193 489 193 489 193 463 c 1,12,13
 296 463 296 463 400 463 c 2,14,-1
 607 463 l 1,15,16
 607 489 607 489 607 515 c 0,17,18
 607 537 607 537 607 580.5 c 128,-1,19
 607 624 607 624 607 646 c 0,20,21
 607 729 607 729 607 786 c 1,22,23
 654 786 654 786 748 786 c 1,24,25
 748 543 748 543 748 300 c 128,-1,26
 748 57 748 57 748 -186 c 1,27,28
 737 -186 737 -186 713.5 -186 c 128,-1,29
 690 -186 690 -186 678 -186 c 0,30,31
 636 -186 636 -186 607 -186 c 1,32,33
 607 -94 607 -94 607 40 c 0,34,35
 607 76 607 76 607 146.5 c 128,-1,36
 607 217 607 217 607 252 c 0,37,38
 607 294 607 294 607 336 c 1,39,40
 504 336 504 336 400 336 c 2,41,-1
 193 336 l 1,42,43
 193 294 193 294 193 252 c 0,44,45
 193 217 193 217 193 146.5 c 128,-1,46
 193 76 193 76 193 40 c 0,47,48
 193 -93 193 -93 193 -186 c 1,49,50
 146 -186 146 -186 52 -186 c 1,51,52
 52 57 52 57 52 300 c 128,-1,53
 52 543 52 543 52 786 c 1,0,1
EndSplineSet
Validated: 1
EndChar

StartChar: K
Encoding: 75 75 22
Width: 800
GlyphClass: 1
Flags: W
LayerCount: 2
Fore
SplineSet
99 786 m 1,0,-1
 241 786 l 1,1,2
 241 706 241 706 241 607 c 0,3,4
 241 567 241 567 241 487.5 c 128,-1,5
 241 408 241 408 241 368 c 1,6,7
 295 424 295 424 647 786 c 1,8,9
 717 717 717 717 748 687 c 1,10,11
 704 642 704 642 603.5 538.5 c 128,-1,12
 503 435 503 435 449 380 c 1,13,14
 502 293 502 293 602 128 c 128,-1,15
 702 -37 702 -37 748 -112 c 1,16,17
 730 -123 730 -123 710 -135.5 c 128,-1,18
 690 -148 690 -148 666 -162.5 c 128,-1,19
 642 -177 642 -177 628 -186 c 1,20,21
 578 -103 578 -103 483.5 51.5 c 128,-1,22
 389 206 389 206 347 275 c 1,23,24
 327 255 327 255 290.5 217.5 c 128,-1,25
 254 180 254 180 241 166 c 1,26,27
 241 119 241 119 241 62 c 0,28,29
 241 38 241 38 241 -10 c 128,-1,30
 241 -58 241 -58 241 -82 c 0,31,32
 241 -139 241 -139 241 -186 c 1,33,-1
 99 -186 l 1,34,35
 99 57 99 57 99 300 c 128,-1,36
 99 543 99 543 99 786 c 1,0,-1
EndSplineSet
Validated: 1
EndChar

StartChar: L
Encoding: 76 76 23
Width: 800
GlyphClass: 1
Flags: W
LayerCount: 2
Fore
SplineSet
138 786 m 1,0,1
 157 786 157 786 182 786 c 0,2,3
 191 786 191 786 208.5 786 c 128,-1,4
 226 786 226 786 235 786 c 0,5,6
 259 786 259 786 279 786 c 1,7,8
 279 651 279 651 279 381.5 c 128,-1,9
 279 112 279 112 279 -23 c 1,10,11
 299 -23 299 -23 338 -23 c 0,12,13
 370 -23 370 -23 432.5 -23 c 128,-1,14
 495 -23 495 -23 526 -23 c 0,15,16
 604 -23 604 -23 662 -23 c 1,17,18
 662 -41 662 -41 662 -77 c 128,-1,19
 662 -113 662 -113 662 -131 c 0,20,21
 662 -163 662 -163 662 -186 c 1,22,23
 531 -186 531 -186 400 -186 c 2,24,-1
 138 -186 l 1,25,26
 138 57 138 57 138 300 c 128,-1,27
 138 543 138 543 138 786 c 1,0,1
EndSplineSet
Validated: 1
EndChar

StartChar: M
Encoding: 77 77 24
Width: 800
GlyphClass: 1
Flags: W
LayerCount: 2
Fore
SplineSet
-30 786 m 1,0,1
 -7 786 -7 786 17 786 c 2,2,-1
 111 786 l 1,3,4
 153 703 153 703 250.5 511.5 c 128,-1,5
 348 320 348 320 400 217 c 1,6,7
 452 320 452 320 549.5 511.5 c 128,-1,8
 647 703 647 703 689 786 c 1,9,10
 705 786 705 786 736.5 786 c 128,-1,11
 768 786 768 786 783 786 c 2,12,-1
 830 786 l 1,13,-1
 830 -186 l 1,14,15
 823 -186 823 -186 808 -186 c 0,16,17
 798 -186 798 -186 779 -186 c 128,-1,18
 760 -186 760 -186 750 -186 c 0,19,20
 716 -186 716 -186 689 -186 c 1,21,22
 689 -103 689 -103 689 0 c 0,23,24
 689 38 689 38 689 113.5 c 128,-1,25
 689 189 689 189 689 226 c 0,26,27
 689 330 689 330 689 412 c 1,28,29
 647 331 647 331 570 182.5 c 128,-1,30
 493 34 493 34 465 -21 c 1,31,32
 438 -21 438 -21 406 -21 c 0,33,34
 376 -21 376 -21 335 -21 c 1,35,36
 304 39 304 39 228 186 c 128,-1,37
 152 333 152 333 111 412 c 1,38,39
 111 273 111 273 111 143 c 0,40,41
 111 -31 111 -31 111 -186 c 1,42,43
 82 -186 82 -186 40 -186 c 0,44,45
 28 -186 28 -186 4.5 -186 c 128,-1,46
 -19 -186 -19 -186 -30 -186 c 1,47,-1
 -30 786 l 1,0,1
EndSplineSet
Validated: 1
EndChar

StartChar: P
Encoding: 80 80 25
Width: 800
GlyphClass: 1
Flags: W
LayerCount: 2
Fore
SplineSet
63 786 m 1,0,-1
 461 786 l 2,1,2
 462 786 462 786 463 786 c 0,3,4
 524 786 524 786 579 760 c 0,5,6
 641 731 641 731 682 675 c 0,7,8
 722 622 722 622 733 558 c 0,9,10
 737 535 737 535 737 511 c 0,11,12
 737 483 737 483 731 455 c 0,13,14
 719 396 719 396 683 347 c 0,15,16
 638 287 638 287 568 258 c 0,17,18
 518 236 518 236 463 236 c 0,19,20
 461 236 461 236 460 236 c 0,21,22
 431 236 431 236 402 236 c 0,23,24
 385 236 385 236 350.5 236 c 128,-1,25
 316 236 316 236 299 236 c 0,26,27
 245 236 245 236 204 236 c 1,28,29
 204 219 204 219 204 186 c 0,30,31
 204 152 204 152 204 85.5 c 128,-1,32
 204 19 204 19 204 -14 c 0,33,34
 204 -114 204 -114 204 -186 c 1,35,-1
 63 -186 l 1,36,37
 63 57 63 57 63 300 c 128,-1,38
 63 543 63 543 63 786 c 1,0,-1
204 615 m 1,39,-1
 204 406 l 1,40,41
 256 406 256 406 334 406 c 0,42,43
 356 406 356 406 399.5 406 c 128,-1,44
 443 406 443 406 465 406 c 0,45,46
 466 406 466 406 467 406 c 0,47,48
 495 406 495 406 520 421 c 0,49,50
 548 438 548 438 561 468 c 0,51,52
 570 488 570 488 570 511 c 0,53,54
 570 535 570 535 560 556 c 0,55,56
 545 587 545 587 515 603 c 0,57,58
 492 615 492 615 466 615 c 0,59,60
 465 615 465 615 465 615 c 1,61,-1
 204 615 l 1,39,-1
EndSplineSet
Validated: 1
EndChar

StartChar: S
Encoding: 83 83 26
Width: 640
GlyphClass: 1
Flags: W
LayerCount: 2
Fore
SplineSet
209 449 m 0,0,1
 224 458 224 458 241 458 c 2,2,-1
 417 458 l 2,3,4
 425 458 425 458 428 454 c 0,5,6
 440 440 440 440 465 413 c 0,7,8
 471 406 471 406 472 395 c 128,-1,9
 473 384 473 384 464 375 c 0,10,11
 446 358 446 358 429 340 c 0,12,13
 423 334 423 334 414 334 c 2,14,-1
 239 334 l 2,15,16
 225 334 225 334 211 341 c 0,17,18
 195 349 195 349 150 376 c 0,19,20
 141 381 141 381 140 395 c 0,21,22
 139 406 139 406 150 413 c 0,23,24
 156 416 156 416 177.5 429.5 c 128,-1,25
 199 443 199 443 209 449 c 0,0,1
89 416 m 0,26,27
 86 418 86 418 84 420 c 0,28,29
 76 427 76 427 76 438 c 2,30,-1
 76 672 l 2,31,32
 76 701 76 701 90 725 c 0,33,34
 90 726 90 726 95 735 c 0,35,36
 100 743 100 743 109 743 c 0,37,38
 115 743 115 743 120 738 c 0,39,40
 125 734 125 734 155 703.5 c 128,-1,41
 185 673 185 673 196 663 c 0,42,43
 206 653 206 653 205 640 c 2,44,-1
 205 467 l 2,45,46
 205 458 205 458 197 454 c 0,47,48
 188 448 188 448 161.5 433 c 128,-1,49
 135 418 135 418 128 414 c 0,50,51
 120 410 120 410 111 410 c 0,52,53
 104 410 104 410 97 412 c 0,54,55
 91 414 91 414 89 416 c 0,26,27
120 751 m 0,56,57
 118 757 118 757 120 760 c 128,-1,58
 122 763 122 763 129 770 c 0,59,60
 133 774 133 774 141 779 c 0,61,62
 158 791 158 791 179 791 c 2,63,-1
 442 791 l 1,64,-1
 456 790 l 2,65,66
 457 790 457 790 459 789.5 c 128,-1,67
 461 789 461 789 463 789 c 0,68,69
 469 788 469 788 473 784 c 0,70,71
 478 779 478 779 476 773 c 0,72,73
 472 765 472 765 432 674 c 0,74,75
 427 663 427 663 415 663 c 2,76,-1
 216 663 l 2,77,78
 206 663 206 663 200 670 c 0,79,80
 123 745 123 745 120 751 c 0,56,57
554 379 m 0,81,82
 558 375 558 375 560 368 c 0,83,84
 561 362 561 362 560 357 c 2,85,-1
 560 120 l 2,86,87
 560 98 560 98 552 79 c 0,88,89
 544 61 544 61 532 46 c 0,90,91
 522 32 522 32 508 20 c 0,92,93
 502 16 502 16 496 16 c 0,94,95
 484 16 484 16 480 27 c 0,96,97
 478 30 478 30 460 70 c 128,-1,98
 442 110 442 110 436 124 c 0,99,100
 431 134 431 134 431 144 c 0,101,102
 431 170 431 170 431 192.5 c 128,-1,103
 431 215 431 215 431 232 c 128,-1,104
 431 249 431 249 431 271 c 0,105,106
 431 289 431 289 431 313 c 0,107,108
 431 321 431 321 436 327 c 0,109,110
 471 370 471 370 487 380 c 0,111,112
 500 389 500 389 517 389 c 0,113,114
 520 389 520 389 525 388.5 c 128,-1,115
 530 388 530 388 531 388 c 0,116,117
 546 388 546 388 554 379 c 0,81,82
120 42 m 0,118,119
 123 48 123 48 200 123 c 0,120,121
 206 129 206 129 216 129 c 2,122,-1
 415 129 l 2,123,124
 427 129 427 129 432 119 c 0,125,126
 473 28 473 28 476 19 c 0,127,128
 478 13 478 13 473 8 c 0,129,130
 469 4 469 4 463 3 c 0,131,132
 462 3 462 3 459 3 c 128,-1,133
 456 3 456 3 456 3 c 2,134,-1
 442 2 l 1,135,-1
 179 2 l 2,136,137
 158 2 158 2 141 14 c 0,138,139
 133 19 133 19 129 23 c 0,140,141
 122 30 122 30 120 33 c 128,-1,142
 118 36 118 36 120 42 c 0,118,119
EndSplineSet
Validated: 1
EndChar

StartChar: T
Encoding: 84 84 27
Width: 800
GlyphClass: 1
Flags: W
LayerCount: 2
Fore
SplineSet
75 786 m 1,0,-1
 725 786 l 1,1,-1
 725 628 l 1,2,3
 713 628 713 628 471 628 c 1,4,-1
 471 -186 l 1,5,-1
 329 -186 l 1,6,-1
 329 628 l 1,7,8
 267 628 267 628 205 628 c 0,9,10
 140 628 140 628 75 628 c 1,11,-1
 75 786 l 1,0,-1
EndSplineSet
Validated: 1
EndChar

StartChar: V
Encoding: 86 86 28
Width: 800
GlyphClass: 1
Flags: W
LayerCount: 2
Fore
SplineSet
43 786 m 1,0,1
 64 786 64 786 94 786 c 0,2,3
 103 786 103 786 120 786 c 128,-1,4
 137 786 137 786 146 786 c 0,5,6
 172 786 172 786 191 786 c 1,7,8
 230 652 230 652 301.5 406 c 128,-1,9
 373 160 373 160 400 68 c 1,10,11
 525 498 525 498 609 786 c 1,12,13
 616 786 616 786 757 786 c 1,14,15
 709 624 709 624 615 300 c 128,-1,16
 521 -24 521 -24 474 -186 c 1,17,18
 447 -186 447 -186 419 -186 c 0,19,20
 383 -186 383 -186 326 -186 c 1,21,22
 203 236 203 236 43 786 c 1,0,1
EndSplineSet
Validated: 1
EndChar

StartChar: o
Encoding: 111 111 29
Width: 640
GlyphClass: 1
Flags: W
LayerCount: 2
Fore
SplineSet
209 449 m 0,0,1
 224 458 224 458 241 458 c 2,2,-1
 417 458 l 2,3,4
 425 458 425 458 428 454 c 0,5,6
 440 440 440 440 465 413 c 0,7,8
 471 406 471 406 472 395 c 128,-1,9
 473 384 473 384 464 375 c 0,10,11
 446 358 446 358 429 340 c 0,12,13
 423 334 423 334 414 334 c 2,14,-1
 239 334 l 2,15,16
 225 334 225 334 211 341 c 0,17,18
 195 349 195 349 150 376 c 0,19,20
 141 381 141 381 140 395 c 0,21,22
 139 406 139 406 150 413 c 0,23,24
 156 416 156 416 177.5 429.5 c 128,-1,25
 199 443 199 443 209 449 c 0,0,1
554 379 m 0,26,27
 558 375 558 375 560 368 c 0,28,29
 561 362 561 362 560 357 c 2,30,-1
 560 120 l 2,31,32
 560 98 560 98 552 79 c 0,33,34
 544 61 544 61 532 46 c 0,35,36
 522 32 522 32 508 20 c 0,37,38
 502 16 502 16 496 16 c 0,39,40
 484 16 484 16 480 27 c 0,41,42
 478 30 478 30 460 70 c 128,-1,43
 442 110 442 110 436 124 c 0,44,45
 431 134 431 134 431 144 c 0,46,47
 431 170 431 170 431 192.5 c 128,-1,48
 431 215 431 215 431 232 c 128,-1,49
 431 249 431 249 431 271 c 0,50,51
 431 289 431 289 431 313 c 0,52,53
 431 321 431 321 436 327 c 0,54,55
 471 370 471 370 487 380 c 0,56,57
 500 389 500 389 517 389 c 0,58,59
 520 389 520 389 525 388.5 c 128,-1,60
 530 388 530 388 531 388 c 0,61,62
 546 388 546 388 554 379 c 0,26,27
120 42 m 0,63,64
 123 48 123 48 200 123 c 0,65,66
 206 129 206 129 216 129 c 2,67,-1
 415 129 l 2,68,69
 427 129 427 129 432 119 c 0,70,71
 473 28 473 28 476 19 c 0,72,73
 478 13 478 13 473 8 c 0,74,75
 469 4 469 4 463 3 c 0,76,77
 462 3 462 3 459 3 c 128,-1,78
 456 3 456 3 456 3 c 2,79,-1
 442 2 l 1,80,-1
 179 2 l 2,81,82
 158 2 158 2 141 14 c 0,83,84
 133 19 133 19 129 23 c 0,85,86
 122 30 122 30 120 33 c 128,-1,87
 118 36 118 36 120 42 c 0,63,64
89 376 m 0,88,89
 91 378 91 378 97 380 c 128,-1,90
 103 382 103 382 111 383 c 0,91,92
 120 383 120 383 128 379 c 0,93,94
 135 375 135 375 161.5 359.5 c 128,-1,95
 188 344 188 344 197 339 c 0,96,97
 205 335 205 335 205 326 c 2,98,-1
 205 151 l 2,99,100
 205 138 205 138 196 130 c 0,101,102
 186 120 186 120 155 89.5 c 128,-1,103
 124 59 124 59 120 55 c 0,104,105
 116 50 116 50 109 50 c 0,106,107
 99 50 99 50 95 58 c 256,108,109
 90 66 90 66 90 67 c 0,110,111
 76 92 76 92 76 120 c 2,112,-1
 76 354 l 2,113,114
 76 365 76 365 84 371 c 0,115,116
 86 374 86 374 89 376 c 0,88,89
EndSplineSet
Validated: 1
EndChar

StartChar: y
Encoding: 121 121 30
Width: 200
GlyphClass: 1
Flags: W
LayerCount: 2
Fore
SplineSet
29 -100 m 128,-1,1
 29 -71 29 -71 50 -50 c 128,-1,2
 71 -29 71 -29 100 -29 c 128,-1,3
 129 -29 129 -29 150 -50 c 128,-1,4
 171 -71 171 -71 171 -100 c 128,-1,5
 171 -129 171 -129 150 -150 c 128,-1,6
 129 -171 129 -171 100 -171 c 128,-1,7
 71 -171 71 -171 50 -150 c 128,-1,0
 29 -129 29 -129 29 -100 c 128,-1,1
EndSplineSet
Validated: 1
EndChar

StartChar: degree
Encoding: 176 176 31
Width: 230
GlyphClass: 1
Flags: W
LayerCount: 2
Fore
SplineSet
160 709 m 0,0,1
 160 730 160 730 147 742 c 0,2,3
 133 755 133 755 114 755 c 0,4,5
 93 755 93 755 81 742 c 0,6,7
 68 728 68 728 68 709 c 0,8,9
 68 688 68 688 81 676 c 0,10,11
 95 663 95 663 114 663 c 128,-1,12
 133 663 133 663 146.5 676.5 c 128,-1,13
 160 690 160 690 160 709 c 0,0,1
201 709 m 0,14,15
 201 671 201 671 176 647 c 0,16,17
 150 622 150 622 114 622 c 128,-1,18
 78 622 78 622 52 648 c 0,19,20
 27 673 27 673 27 709 c 0,21,22
 27 747 27 747 52 771 c 0,23,24
 78 796 78 796 114 796 c 128,-1,25
 150 796 150 796 175.5 770.5 c 128,-1,26
 201 745 201 745 201 709 c 0,14,15
EndSplineSet
Validated: 1
EndChar

StartChar: d
Encoding: 100 100 32
Width: 640
Flags: W
LayerCount: 2
Fore
SplineSet
209 449 m 0,0,1
 224 458 224 458 241 458 c 2,2,-1
 417 458 l 2,3,4
 425 458 425 458 428 454 c 0,5,6
 440 440 440 440 465 413 c 0,7,8
 471 406 471 406 472 395 c 128,-1,9
 473 384 473 384 464 375 c 0,10,11
 446 358 446 358 429 340 c 0,12,13
 423 334 423 334 414 334 c 2,14,-1
 239 334 l 2,15,16
 225 334 225 334 211 341 c 0,17,18
 195 349 195 349 150 376 c 0,19,20
 141 381 141 381 140 395 c 0,21,22
 139 406 139 406 150 413 c 0,23,24
 156 416 156 416 177.5 429.5 c 128,-1,25
 199 443 199 443 209 449 c 0,0,1
554 411 m 0,26,27
 546 402 546 402 531 402 c 0,28,29
 530 402 530 402 525 401.5 c 128,-1,30
 520 401 520 401 517 401 c 0,31,32
 499 401 499 401 487 410 c 0,33,34
 472 420 472 420 436 462 c 0,35,36
 430 468 430 468 431 477 c 0,37,38
 431 500 431 500 431 519 c 0,39,40
 431 541 431 541 431 558 c 128,-1,41
 431 575 431 575 431 597 c 128,-1,42
 431 619 431 619 431 646 c 0,43,44
 431 656 431 656 436 666 c 0,45,46
 462 724 462 724 480 763 c 0,47,48
 485 773 485 773 496 773 c 0,49,50
 502 773 502 773 508 770 c 0,51,52
 520 761 520 761 532 744 c 0,53,54
 546 726 546 726 552 711 c 0,55,56
 560 693 560 693 560 673 c 0,57,58
 560 671 560 671 560 669 c 2,59,-1
 560 433 l 2,60,61
 560 427 560 427 560 422 c 0,62,63
 558 415 558 415 554 411 c 0,26,27
554 379 m 0,64,65
 558 375 558 375 560 368 c 0,66,67
 561 362 561 362 560 357 c 2,68,-1
 560 120 l 2,69,70
 560 98 560 98 552 79 c 0,71,72
 544 61 544 61 532 46 c 0,73,74
 522 32 522 32 508 20 c 0,75,76
 502 16 502 16 496 16 c 0,77,78
 484 16 484 16 480 27 c 0,79,80
 478 30 478 30 460 70 c 128,-1,81
 442 110 442 110 436 124 c 0,82,83
 431 134 431 134 431 144 c 0,84,85
 431 170 431 170 431 192.5 c 128,-1,86
 431 215 431 215 431 232 c 128,-1,87
 431 249 431 249 431 271 c 0,88,89
 431 289 431 289 431 313 c 0,90,91
 431 321 431 321 436 327 c 0,92,93
 471 370 471 370 487 380 c 0,94,95
 500 389 500 389 517 389 c 0,96,97
 520 389 520 389 525 388.5 c 128,-1,98
 530 388 530 388 531 388 c 0,99,100
 546 388 546 388 554 379 c 0,64,65
120 42 m 0,101,102
 123 48 123 48 200 123 c 0,103,104
 206 129 206 129 216 129 c 2,105,-1
 415 129 l 2,106,107
 427 129 427 129 432 119 c 0,108,109
 473 28 473 28 476 19 c 0,110,111
 478 13 478 13 473 8 c 0,112,113
 469 4 469 4 463 3 c 0,114,115
 462 3 462 3 459 3 c 128,-1,116
 456 3 456 3 456 3 c 2,117,-1
 442 2 l 1,118,-1
 179 2 l 2,119,120
 158 2 158 2 141 14 c 0,121,122
 133 19 133 19 129 23 c 0,123,124
 122 30 122 30 120 33 c 128,-1,125
 118 36 118 36 120 42 c 0,101,102
89 376 m 0,126,127
 91 378 91 378 97 380 c 128,-1,128
 103 382 103 382 111 383 c 0,129,130
 120 383 120 383 128 379 c 0,131,132
 135 375 135 375 161.5 359.5 c 128,-1,133
 188 344 188 344 197 339 c 0,134,135
 205 335 205 335 205 326 c 2,136,-1
 205 151 l 2,137,138
 205 138 205 138 196 130 c 0,139,140
 186 120 186 120 155 89.5 c 128,-1,141
 124 59 124 59 120 55 c 0,142,143
 116 50 116 50 109 50 c 0,144,145
 99 50 99 50 95 58 c 256,146,147
 90 66 90 66 90 67 c 0,148,149
 76 92 76 92 76 120 c 2,150,-1
 76 354 l 2,151,152
 76 365 76 365 84 371 c 0,153,154
 86 374 86 374 89 376 c 0,126,127
EndSplineSet
Validated: 1
EndChar

StartChar: t
Encoding: 116 116 33
Width: 640
Flags: W
LayerCount: 2
Fore
SplineSet
209 449 m 0,0,1
 224 458 224 458 241 458 c 2,2,-1
 417 458 l 2,3,4
 425 458 425 458 428 454 c 0,5,6
 440 440 440 440 465 413 c 0,7,8
 471 406 471 406 472 395 c 128,-1,9
 473 384 473 384 464 375 c 0,10,11
 446 358 446 358 429 340 c 0,12,13
 423 334 423 334 414 334 c 2,14,-1
 239 334 l 2,15,16
 225 334 225 334 211 341 c 0,17,18
 195 349 195 349 150 376 c 0,19,20
 141 381 141 381 140 395 c 0,21,22
 139 406 139 406 150 413 c 0,23,24
 156 416 156 416 177.5 429.5 c 128,-1,25
 199 443 199 443 209 449 c 0,0,1
89 416 m 0,26,27
 86 418 86 418 84 420 c 0,28,29
 76 427 76 427 76 438 c 2,30,-1
 76 672 l 2,31,32
 76 701 76 701 90 725 c 0,33,34
 90 726 90 726 95 735 c 0,35,36
 100 743 100 743 109 743 c 0,37,38
 115 743 115 743 120 738 c 0,39,40
 125 734 125 734 155 703.5 c 128,-1,41
 185 673 185 673 196 663 c 0,42,43
 206 653 206 653 205 640 c 2,44,-1
 205 467 l 2,45,46
 205 458 205 458 197 454 c 0,47,48
 188 448 188 448 161.5 433 c 128,-1,49
 135 418 135 418 128 414 c 0,50,51
 120 410 120 410 111 410 c 0,52,53
 104 410 104 410 97 412 c 0,54,55
 91 414 91 414 89 416 c 0,26,27
120 42 m 0,56,57
 123 48 123 48 200 123 c 0,58,59
 206 129 206 129 216 129 c 2,60,-1
 415 129 l 2,61,62
 427 129 427 129 432 119 c 0,63,64
 473 28 473 28 476 19 c 0,65,66
 478 13 478 13 473 8 c 0,67,68
 469 4 469 4 463 3 c 0,69,70
 462 3 462 3 459 3 c 128,-1,71
 456 3 456 3 456 3 c 2,72,-1
 442 2 l 1,73,-1
 179 2 l 2,74,75
 158 2 158 2 141 14 c 0,76,77
 133 19 133 19 129 23 c 0,78,79
 122 30 122 30 120 33 c 128,-1,80
 118 36 118 36 120 42 c 0,56,57
89 376 m 0,81,82
 91 378 91 378 97 380 c 128,-1,83
 103 382 103 382 111 383 c 0,84,85
 120 383 120 383 128 379 c 0,86,87
 135 375 135 375 161.5 359.5 c 128,-1,88
 188 344 188 344 197 339 c 0,89,90
 205 335 205 335 205 326 c 2,91,-1
 205 151 l 2,92,93
 205 138 205 138 196 130 c 0,94,95
 186 120 186 120 155 89.5 c 128,-1,96
 124 59 124 59 120 55 c 0,97,98
 116 50 116 50 109 50 c 0,99,100
 99 50 99 50 95 58 c 256,101,102
 90 66 90 66 90 67 c 0,103,104
 76 92 76 92 76 120 c 2,105,-1
 76 354 l 2,106,107
 76 365 76 365 84 371 c 0,108,109
 86 374 86 374 89 376 c 0,81,82
EndSplineSet
Validated: 1
EndChar

StartChar: asterisk
Encoding: 42 42 36
Width: 640
Flags: W
LayerCount: 2
Fore
SplineSet
359 479 m 4,0,1
 355 473 355 473 350 473 c 6,2,-1
 281 473 l 6,3,4
 275 473 275 473 272 479 c 4,5,6
 267 488 267 488 256 506 c 4,7,8
 251 514 251 514 252 522 c 4,9,10
 253 532 253 532 256 538 c 4,11,12
 282 591 282 591 305 619 c 4,13,14
 309 624 309 624 316 624 c 132,-1,15
 323 624 323 624 326 619 c 4,16,17
 332 610 332 610 350 579 c 132,-1,18
 368 548 368 548 375 538 c 4,19,20
 380 531 380 531 380 522 c 4,21,22
 380 515 380 515 375 506 c 4,23,24
 369 496 369 496 359 479 c 4,0,1
209 449 m 4,25,26
 224 458 224 458 241 458 c 6,27,-1
 417 458 l 6,28,29
 425 458 425 458 428 454 c 4,30,31
 440 440 440 440 465 413 c 4,32,33
 471 406 471 406 472 395 c 132,-1,34
 473 384 473 384 464 375 c 4,35,36
 446 358 446 358 429 340 c 4,37,38
 423 334 423 334 414 334 c 6,39,-1
 239 334 l 6,40,41
 225 334 225 334 211 341 c 4,42,43
 195 349 195 349 150 376 c 4,44,45
 141 381 141 381 140 395 c 4,46,47
 139 406 139 406 150 413 c 4,48,49
 156 416 156 416 177.5 429.5 c 132,-1,50
 199 443 199 443 209 449 c 4,25,26
359 313 m 4,51,52
 364 303 364 303 375 286 c 4,53,54
 380 278 380 278 380 269 c 132,-1,55
 380 260 380 260 375 254 c 4,56,57
 340 195 340 195 326 173 c 4,58,59
 323 167 323 167 315.5 167 c 132,-1,60
 308 167 308 167 305 173 c 4,61,62
 299 183 299 183 281 213 c 132,-1,63
 263 243 263 243 256 254 c 4,64,65
 252 261 252 261 252 270 c 132,-1,66
 252 279 252 279 256 286 c 4,67,68
 269 308 269 308 272 313 c 132,-1,69
 275 318 275 318 281 318 c 6,70,-1
 350 318 l 6,71,72
 356 318 356 318 359 313 c 4,51,52
554 411 m 4,73,74
 546 402 546 402 531 402 c 4,75,76
 530 402 530 402 525 401.5 c 132,-1,77
 520 401 520 401 517 401 c 4,78,79
 499 401 499 401 487 410 c 4,80,81
 472 420 472 420 436 462 c 4,82,83
 430 468 430 468 431 477 c 4,84,85
 431 500 431 500 431 519 c 4,86,87
 431 541 431 541 431 558 c 132,-1,88
 431 575 431 575 431 597 c 132,-1,89
 431 619 431 619 431 646 c 4,90,91
 431 656 431 656 436 666 c 4,92,93
 462 724 462 724 480 763 c 4,94,95
 485 773 485 773 496 773 c 4,96,97
 502 773 502 773 508 770 c 4,98,99
 520 761 520 761 532 744 c 4,100,101
 546 726 546 726 552 711 c 4,102,103
 560 693 560 693 560 673 c 4,104,105
 560 671 560 671 560 669 c 6,106,-1
 560 433 l 6,107,108
 560 427 560 427 560 422 c 4,109,110
 558 415 558 415 554 411 c 4,73,74
89 416 m 4,111,112
 86 418 86 418 84 420 c 4,113,114
 76 427 76 427 76 438 c 6,115,-1
 76 672 l 6,116,117
 76 701 76 701 90 725 c 4,118,119
 90 726 90 726 95 735 c 4,120,121
 100 743 100 743 109 743 c 4,122,123
 115 743 115 743 120 738 c 4,124,125
 125 734 125 734 155 703.5 c 132,-1,126
 185 673 185 673 196 663 c 4,127,128
 206 653 206 653 205 640 c 6,129,-1
 205 467 l 6,130,131
 205 458 205 458 197 454 c 4,132,133
 188 448 188 448 161.5 433 c 132,-1,134
 135 418 135 418 128 414 c 4,135,136
 120 410 120 410 111 410 c 4,137,138
 104 410 104 410 97 412 c 4,139,140
 91 414 91 414 89 416 c 4,111,112
120 751 m 4,141,142
 118 757 118 757 120 760 c 132,-1,143
 122 763 122 763 129 770 c 4,144,145
 133 774 133 774 141 779 c 4,146,147
 158 791 158 791 179 791 c 6,148,-1
 442 791 l 5,149,-1
 456 790 l 6,150,151
 457 790 457 790 459 789.5 c 132,-1,152
 461 789 461 789 463 789 c 4,153,154
 469 788 469 788 473 784 c 4,155,156
 478 779 478 779 476 773 c 4,157,158
 472 765 472 765 432 674 c 4,159,160
 427 663 427 663 415 663 c 6,161,-1
 216 663 l 6,162,163
 206 663 206 663 200 670 c 4,164,165
 123 745 123 745 120 751 c 4,141,142
554 379 m 4,166,167
 558 375 558 375 560 368 c 4,168,169
 561 362 561 362 560 357 c 6,170,-1
 560 120 l 6,171,172
 560 98 560 98 552 79 c 4,173,174
 544 61 544 61 532 46 c 4,175,176
 522 32 522 32 508 20 c 4,177,178
 502 16 502 16 496 16 c 4,179,180
 484 16 484 16 480 27 c 4,181,182
 478 30 478 30 460 70 c 132,-1,183
 442 110 442 110 436 124 c 4,184,185
 431 134 431 134 431 144 c 4,186,187
 431 170 431 170 431 192.5 c 132,-1,188
 431 215 431 215 431 232 c 132,-1,189
 431 249 431 249 431 271 c 4,190,191
 431 289 431 289 431 313 c 4,192,193
 431 321 431 321 436 327 c 4,194,195
 471 370 471 370 487 380 c 4,196,197
 500 389 500 389 517 389 c 4,198,199
 520 389 520 389 525 388.5 c 132,-1,200
 530 388 530 388 531 388 c 4,201,202
 546 388 546 388 554 379 c 4,166,167
120 42 m 4,203,204
 123 48 123 48 200 123 c 4,205,206
 206 129 206 129 216 129 c 6,207,-1
 415 129 l 6,208,209
 427 129 427 129 432 119 c 4,210,211
 473 28 473 28 476 19 c 4,212,213
 478 13 478 13 473 8 c 4,214,215
 469 4 469 4 463 3 c 4,216,217
 462 3 462 3 459 3 c 132,-1,218
 456 3 456 3 456 3 c 6,219,-1
 442 2 l 5,220,-1
 179 2 l 6,221,222
 158 2 158 2 141 14 c 4,223,224
 133 19 133 19 129 23 c 4,225,226
 122 30 122 30 120 33 c 132,-1,227
 118 36 118 36 120 42 c 4,203,204
89 376 m 4,228,229
 91 378 91 378 97 380 c 132,-1,230
 103 382 103 382 111 383 c 4,231,232
 120 383 120 383 128 379 c 4,233,234
 135 375 135 375 161.5 359.5 c 132,-1,235
 188 344 188 344 197 339 c 4,236,237
 205 335 205 335 205 326 c 6,238,-1
 205 151 l 6,239,240
 205 138 205 138 196 130 c 4,241,242
 186 120 186 120 155 89.5 c 132,-1,243
 124 59 124 59 120 55 c 4,244,245
 116 50 116 50 109 50 c 4,246,247
 99 50 99 50 95 58 c 260,248,249
 90 66 90 66 90 67 c 4,250,251
 76 92 76 92 76 120 c 6,252,-1
 76 354 l 6,253,254
 76 365 76 365 84 371 c 4,255,256
 86 374 86 374 89 376 c 4,228,229
EndSplineSet
Validated: 2049
EndChar

StartChar: f
Encoding: 102 102 37
Width: 640
Flags: W
LayerCount: 2
Fore
SplineSet
209 449 m 0,0,1
 224 458 224 458 241 458 c 2,2,-1
 417 458 l 2,3,4
 425 458 425 458 428 454 c 0,5,6
 440 440 440 440 465 413 c 0,7,8
 471 406 471 406 472 395 c 128,-1,9
 473 384 473 384 464 375 c 0,10,11
 446 358 446 358 429 340 c 0,12,13
 423 334 423 334 414 334 c 2,14,-1
 239 334 l 2,15,16
 225 334 225 334 211 341 c 0,17,18
 195 349 195 349 150 376 c 0,19,20
 141 381 141 381 140 395 c 0,21,22
 139 406 139 406 150 413 c 0,23,24
 156 416 156 416 177.5 429.5 c 128,-1,25
 199 443 199 443 209 449 c 0,0,1
89 416 m 0,26,27
 86 418 86 418 84 420 c 0,28,29
 76 427 76 427 76 438 c 2,30,-1
 76 672 l 2,31,32
 76 701 76 701 90 725 c 0,33,34
 90 726 90 726 95 735 c 0,35,36
 100 743 100 743 109 743 c 0,37,38
 115 743 115 743 120 738 c 0,39,40
 125 734 125 734 155 703.5 c 128,-1,41
 185 673 185 673 196 663 c 0,42,43
 206 653 206 653 205 640 c 2,44,-1
 205 467 l 2,45,46
 205 458 205 458 197 454 c 0,47,48
 188 448 188 448 161.5 433 c 128,-1,49
 135 418 135 418 128 414 c 0,50,51
 120 410 120 410 111 410 c 0,52,53
 104 410 104 410 97 412 c 0,54,55
 91 414 91 414 89 416 c 0,26,27
120 751 m 0,56,57
 118 757 118 757 120 760 c 128,-1,58
 122 763 122 763 129 770 c 0,59,60
 133 774 133 774 141 779 c 0,61,62
 158 791 158 791 179 791 c 2,63,-1
 442 791 l 1,64,-1
 456 790 l 2,65,66
 457 790 457 790 459 789.5 c 128,-1,67
 461 789 461 789 463 789 c 0,68,69
 469 788 469 788 473 784 c 0,70,71
 478 779 478 779 476 773 c 0,72,73
 472 765 472 765 432 674 c 0,74,75
 427 663 427 663 415 663 c 2,76,-1
 216 663 l 2,77,78
 206 663 206 663 200 670 c 0,79,80
 123 745 123 745 120 751 c 0,56,57
89 376 m 0,81,82
 91 378 91 378 97 380 c 128,-1,83
 103 382 103 382 111 383 c 0,84,85
 120 383 120 383 128 379 c 0,86,87
 135 375 135 375 161.5 359.5 c 128,-1,88
 188 344 188 344 197 339 c 0,89,90
 205 335 205 335 205 326 c 2,91,-1
 205 151 l 2,92,93
 205 138 205 138 196 130 c 0,94,95
 186 120 186 120 155 89.5 c 128,-1,96
 124 59 124 59 120 55 c 0,97,98
 116 50 116 50 109 50 c 0,99,100
 99 50 99 50 95 58 c 256,101,102
 90 66 90 66 90 67 c 0,103,104
 76 92 76 92 76 120 c 2,105,-1
 76 354 l 2,106,107
 76 365 76 365 84 371 c 0,108,109
 86 374 86 374 89 376 c 0,81,82
EndSplineSet
Validated: 1
EndChar

StartChar: e
Encoding: 101 101 38
Width: 640
Flags: W
LayerCount: 2
Fore
SplineSet
209 449 m 0,0,1
 224 458 224 458 241 458 c 2,2,-1
 417 458 l 2,3,4
 425 458 425 458 428 454 c 0,5,6
 440 440 440 440 465 413 c 0,7,8
 471 406 471 406 472 395 c 128,-1,9
 473 384 473 384 464 375 c 0,10,11
 446 358 446 358 429 340 c 0,12,13
 423 334 423 334 414 334 c 2,14,-1
 239 334 l 2,15,16
 225 334 225 334 211 341 c 0,17,18
 195 349 195 349 150 376 c 0,19,20
 141 381 141 381 140 395 c 0,21,22
 139 406 139 406 150 413 c 0,23,24
 156 416 156 416 177.5 429.5 c 128,-1,25
 199 443 199 443 209 449 c 0,0,1
89 416 m 0,26,27
 86 418 86 418 84 420 c 0,28,29
 76 427 76 427 76 438 c 2,30,-1
 76 672 l 2,31,32
 76 701 76 701 90 725 c 0,33,34
 90 726 90 726 95 735 c 0,35,36
 100 743 100 743 109 743 c 0,37,38
 115 743 115 743 120 738 c 0,39,40
 125 734 125 734 155 703.5 c 128,-1,41
 185 673 185 673 196 663 c 0,42,43
 206 653 206 653 205 640 c 2,44,-1
 205 467 l 2,45,46
 205 458 205 458 197 454 c 0,47,48
 188 448 188 448 161.5 433 c 128,-1,49
 135 418 135 418 128 414 c 0,50,51
 120 410 120 410 111 410 c 0,52,53
 104 410 104 410 97 412 c 0,54,55
 91 414 91 414 89 416 c 0,26,27
120 751 m 0,56,57
 118 757 118 757 120 760 c 128,-1,58
 122 763 122 763 129 770 c 0,59,60
 133 774 133 774 141 779 c 0,61,62
 158 791 158 791 179 791 c 2,63,-1
 442 791 l 1,64,-1
 456 790 l 2,65,66
 457 790 457 790 459 789.5 c 128,-1,67
 461 789 461 789 463 789 c 0,68,69
 469 788 469 788 473 784 c 0,70,71
 478 779 478 779 476 773 c 0,72,73
 472 765 472 765 432 674 c 0,74,75
 427 663 427 663 415 663 c 2,76,-1
 216 663 l 2,77,78
 206 663 206 663 200 670 c 0,79,80
 123 745 123 745 120 751 c 0,56,57
120 42 m 0,81,82
 123 48 123 48 200 123 c 0,83,84
 206 129 206 129 216 129 c 2,85,-1
 415 129 l 2,86,87
 427 129 427 129 432 119 c 0,88,89
 473 28 473 28 476 19 c 0,90,91
 478 13 478 13 473 8 c 0,92,93
 469 4 469 4 463 3 c 0,94,95
 462 3 462 3 459 3 c 128,-1,96
 456 3 456 3 456 3 c 2,97,-1
 442 2 l 1,98,-1
 179 2 l 2,99,100
 158 2 158 2 141 14 c 0,101,102
 133 19 133 19 129 23 c 0,103,104
 122 30 122 30 120 33 c 128,-1,105
 118 36 118 36 120 42 c 0,81,82
89 376 m 0,106,107
 91 378 91 378 97 380 c 128,-1,108
 103 382 103 382 111 383 c 0,109,110
 120 383 120 383 128 379 c 0,111,112
 135 375 135 375 161.5 359.5 c 128,-1,113
 188 344 188 344 197 339 c 0,114,115
 205 335 205 335 205 326 c 2,116,-1
 205 151 l 2,117,118
 205 138 205 138 196 130 c 0,119,120
 186 120 186 120 155 89.5 c 128,-1,121
 124 59 124 59 120 55 c 0,122,123
 116 50 116 50 109 50 c 0,124,125
 99 50 99 50 95 58 c 256,126,127
 90 66 90 66 90 67 c 0,128,129
 76 92 76 92 76 120 c 2,130,-1
 76 354 l 2,131,132
 76 365 76 365 84 371 c 0,133,134
 86 374 86 374 89 376 c 0,106,107
EndSplineSet
Validated: 1
EndChar

StartChar: q
Encoding: 113 113 39
Width: 640
Flags: W
LayerCount: 2
Fore
SplineSet
463 -4 m 0,0,1
 483 -4 483 -4 495 -13 c 2,2,-1
 588 -82 l 2,3,4
 593 -86 593 -86 595 -91 c 0,5,6
 599 -109 599 -109 605 -145 c 0,7,8
 607 -156 607 -156 602 -165 c 0,9,10
 596 -173 596 -173 585 -177 c 0,11,12
 576 -180 576 -180 532 -187 c 0,13,14
 525 -188 525 -188 515 -181 c 2,15,-1
 428 -118 l 2,16,17
 412 -106 412 -106 408 -97 c 0,18,19
 380 -46 380 -46 374 -35 c 0,20,21
 369 -24 369 -24 375.5 -14 c 128,-1,22
 382 -4 382 -4 394 -4 c 0,23,24
 400 -4 400 -4 425 -4 c 0,25,26
 451 -4 451 -4 463 -4 c 0,0,1
554 411 m 0,27,28
 546 402 546 402 531 402 c 0,29,30
 530 402 530 402 525 401.5 c 128,-1,31
 520 401 520 401 517 401 c 0,32,33
 499 401 499 401 487 410 c 0,34,35
 472 420 472 420 436 462 c 0,36,37
 430 468 430 468 431 477 c 0,38,39
 431 500 431 500 431 519 c 0,40,41
 431 541 431 541 431 558 c 128,-1,42
 431 575 431 575 431 597 c 128,-1,43
 431 619 431 619 431 646 c 0,44,45
 431 656 431 656 436 666 c 0,46,47
 462 724 462 724 480 763 c 0,48,49
 485 773 485 773 496 773 c 0,50,51
 502 773 502 773 508 770 c 0,52,53
 520 761 520 761 532 744 c 0,54,55
 546 726 546 726 552 711 c 0,56,57
 560 693 560 693 560 673 c 0,58,59
 560 671 560 671 560 669 c 2,60,-1
 560 433 l 2,61,62
 560 427 560 427 560 422 c 0,63,64
 558 415 558 415 554 411 c 0,27,28
89 416 m 0,65,66
 86 418 86 418 84 420 c 0,67,68
 76 427 76 427 76 438 c 2,69,-1
 76 672 l 2,70,71
 76 701 76 701 90 725 c 0,72,73
 90 726 90 726 95 735 c 0,74,75
 100 743 100 743 109 743 c 0,76,77
 115 743 115 743 120 738 c 0,78,79
 125 734 125 734 155 703.5 c 128,-1,80
 185 673 185 673 196 663 c 0,81,82
 206 653 206 653 205 640 c 2,83,-1
 205 467 l 2,84,85
 205 458 205 458 197 454 c 0,86,87
 188 448 188 448 161.5 433 c 128,-1,88
 135 418 135 418 128 414 c 0,89,90
 120 410 120 410 111 410 c 0,91,92
 104 410 104 410 97 412 c 0,93,94
 91 414 91 414 89 416 c 0,65,66
120 751 m 0,95,96
 118 757 118 757 120 760 c 128,-1,97
 122 763 122 763 129 770 c 0,98,99
 133 774 133 774 141 779 c 0,100,101
 158 791 158 791 179 791 c 2,102,-1
 442 791 l 1,103,-1
 456 790 l 2,104,105
 457 790 457 790 459 789.5 c 128,-1,106
 461 789 461 789 463 789 c 0,107,108
 469 788 469 788 473 784 c 0,109,110
 478 779 478 779 476 773 c 0,111,112
 472 765 472 765 432 674 c 0,113,114
 427 663 427 663 415 663 c 2,115,-1
 216 663 l 2,116,117
 206 663 206 663 200 670 c 0,118,119
 123 745 123 745 120 751 c 0,95,96
554 379 m 0,120,121
 558 375 558 375 560 368 c 0,122,123
 561 362 561 362 560 357 c 2,124,-1
 560 120 l 2,125,126
 560 98 560 98 552 79 c 0,127,128
 544 61 544 61 532 46 c 0,129,130
 522 32 522 32 508 20 c 0,131,132
 502 16 502 16 496 16 c 0,133,134
 484 16 484 16 480 27 c 0,135,136
 478 30 478 30 460 70 c 128,-1,137
 442 110 442 110 436 124 c 0,138,139
 431 134 431 134 431 144 c 0,140,141
 431 170 431 170 431 192.5 c 128,-1,142
 431 215 431 215 431 232 c 128,-1,143
 431 249 431 249 431 271 c 0,144,145
 431 289 431 289 431 313 c 0,146,147
 431 321 431 321 436 327 c 0,148,149
 471 370 471 370 487 380 c 0,150,151
 500 389 500 389 517 389 c 0,152,153
 520 389 520 389 525 388.5 c 128,-1,154
 530 388 530 388 531 388 c 0,155,156
 546 388 546 388 554 379 c 0,120,121
120 42 m 0,157,158
 123 48 123 48 200 123 c 0,159,160
 206 129 206 129 216 129 c 2,161,-1
 415 129 l 2,162,163
 427 129 427 129 432 119 c 0,164,165
 473 28 473 28 476 19 c 0,166,167
 478 13 478 13 473 8 c 0,168,169
 469 4 469 4 463 3 c 0,170,171
 462 3 462 3 459 3 c 128,-1,172
 456 3 456 3 456 3 c 2,173,-1
 442 2 l 1,174,-1
 179 2 l 2,175,176
 158 2 158 2 141 14 c 0,177,178
 133 19 133 19 129 23 c 0,179,180
 122 30 122 30 120 33 c 128,-1,181
 118 36 118 36 120 42 c 0,157,158
89 376 m 0,182,183
 91 378 91 378 97 380 c 128,-1,184
 103 382 103 382 111 383 c 0,185,186
 120 383 120 383 128 379 c 0,187,188
 135 375 135 375 161.5 359.5 c 128,-1,189
 188 344 188 344 197 339 c 0,190,191
 205 335 205 335 205 326 c 2,192,-1
 205 151 l 2,193,194
 205 138 205 138 196 130 c 0,195,196
 186 120 186 120 155 89.5 c 128,-1,197
 124 59 124 59 120 55 c 0,198,199
 116 50 116 50 109 50 c 0,200,201
 99 50 99 50 95 58 c 256,202,203
 90 66 90 66 90 67 c 0,204,205
 76 92 76 92 76 120 c 2,206,-1
 76 354 l 2,207,208
 76 365 76 365 84 371 c 0,209,210
 86 374 86 374 89 376 c 0,182,183
EndSplineSet
Validated: 1
EndChar

StartChar: p
Encoding: 112 112 40
Width: 640
Flags: W
LayerCount: 2
Fore
SplineSet
209 449 m 0,0,1
 224 458 224 458 241 458 c 2,2,-1
 417 458 l 2,3,4
 425 458 425 458 428 454 c 0,5,6
 440 440 440 440 465 413 c 0,7,8
 471 406 471 406 472 395 c 128,-1,9
 473 384 473 384 464 375 c 0,10,11
 446 358 446 358 429 340 c 0,12,13
 423 334 423 334 414 334 c 2,14,-1
 239 334 l 2,15,16
 225 334 225 334 211 341 c 0,17,18
 195 349 195 349 150 376 c 0,19,20
 141 381 141 381 140 395 c 0,21,22
 139 406 139 406 150 413 c 0,23,24
 156 416 156 416 177.5 429.5 c 128,-1,25
 199 443 199 443 209 449 c 0,0,1
463 -4 m 0,26,27
 483 -4 483 -4 495 -13 c 2,28,-1
 588 -82 l 2,29,30
 593 -86 593 -86 595 -91 c 0,31,32
 599 -109 599 -109 605 -145 c 0,33,34
 607 -156 607 -156 602 -165 c 0,35,36
 596 -173 596 -173 585 -177 c 0,37,38
 576 -180 576 -180 532 -187 c 0,39,40
 525 -188 525 -188 515 -181 c 2,41,-1
 428 -118 l 2,42,43
 412 -106 412 -106 408 -97 c 0,44,45
 380 -46 380 -46 374 -35 c 0,46,47
 369 -24 369 -24 375.5 -14 c 128,-1,48
 382 -4 382 -4 394 -4 c 0,49,50
 400 -4 400 -4 425 -4 c 0,51,52
 451 -4 451 -4 463 -4 c 0,26,27
554 411 m 0,53,54
 546 402 546 402 531 402 c 0,55,56
 530 402 530 402 525 401.5 c 128,-1,57
 520 401 520 401 517 401 c 0,58,59
 499 401 499 401 487 410 c 0,60,61
 472 420 472 420 436 462 c 0,62,63
 430 468 430 468 431 477 c 0,64,65
 431 500 431 500 431 519 c 0,66,67
 431 541 431 541 431 558 c 128,-1,68
 431 575 431 575 431 597 c 128,-1,69
 431 619 431 619 431 646 c 0,70,71
 431 656 431 656 436 666 c 0,72,73
 462 724 462 724 480 763 c 0,74,75
 485 773 485 773 496 773 c 0,76,77
 502 773 502 773 508 770 c 0,78,79
 520 761 520 761 532 744 c 0,80,81
 546 726 546 726 552 711 c 0,82,83
 560 693 560 693 560 673 c 0,84,85
 560 671 560 671 560 669 c 2,86,-1
 560 433 l 2,87,88
 560 427 560 427 560 422 c 0,89,90
 558 415 558 415 554 411 c 0,53,54
89 416 m 0,91,92
 86 418 86 418 84 420 c 0,93,94
 76 427 76 427 76 438 c 2,95,-1
 76 672 l 2,96,97
 76 701 76 701 90 725 c 0,98,99
 90 726 90 726 95 735 c 0,100,101
 100 743 100 743 109 743 c 0,102,103
 115 743 115 743 120 738 c 0,104,105
 125 734 125 734 155 703.5 c 128,-1,106
 185 673 185 673 196 663 c 0,107,108
 206 653 206 653 205 640 c 2,109,-1
 205 467 l 2,110,111
 205 458 205 458 197 454 c 0,112,113
 188 448 188 448 161.5 433 c 128,-1,114
 135 418 135 418 128 414 c 0,115,116
 120 410 120 410 111 410 c 0,117,118
 104 410 104 410 97 412 c 0,119,120
 91 414 91 414 89 416 c 0,91,92
120 751 m 0,121,122
 118 757 118 757 120 760 c 128,-1,123
 122 763 122 763 129 770 c 0,124,125
 133 774 133 774 141 779 c 0,126,127
 158 791 158 791 179 791 c 2,128,-1
 442 791 l 1,129,-1
 456 790 l 2,130,131
 457 790 457 790 459 789.5 c 128,-1,132
 461 789 461 789 463 789 c 0,133,134
 469 788 469 788 473 784 c 0,135,136
 478 779 478 779 476 773 c 0,137,138
 472 765 472 765 432 674 c 0,139,140
 427 663 427 663 415 663 c 2,141,-1
 216 663 l 2,142,143
 206 663 206 663 200 670 c 0,144,145
 123 745 123 745 120 751 c 0,121,122
554 379 m 0,146,147
 558 375 558 375 560 368 c 0,148,149
 561 362 561 362 560 357 c 2,150,-1
 560 120 l 2,151,152
 560 98 560 98 552 79 c 0,153,154
 544 61 544 61 532 46 c 0,155,156
 522 32 522 32 508 20 c 0,157,158
 502 16 502 16 496 16 c 0,159,160
 484 16 484 16 480 27 c 0,161,162
 478 30 478 30 460 70 c 128,-1,163
 442 110 442 110 436 124 c 0,164,165
 431 134 431 134 431 144 c 0,166,167
 431 170 431 170 431 192.5 c 128,-1,168
 431 215 431 215 431 232 c 128,-1,169
 431 249 431 249 431 271 c 0,170,171
 431 289 431 289 431 313 c 0,172,173
 431 321 431 321 436 327 c 0,174,175
 471 370 471 370 487 380 c 0,176,177
 500 389 500 389 517 389 c 0,178,179
 520 389 520 389 525 388.5 c 128,-1,180
 530 388 530 388 531 388 c 0,181,182
 546 388 546 388 554 379 c 0,146,147
120 42 m 0,183,184
 123 48 123 48 200 123 c 0,185,186
 206 129 206 129 216 129 c 2,187,-1
 415 129 l 2,188,189
 427 129 427 129 432 119 c 0,190,191
 473 28 473 28 476 19 c 0,192,193
 478 13 478 13 473 8 c 0,194,195
 469 4 469 4 463 3 c 0,196,197
 462 3 462 3 459 3 c 128,-1,198
 456 3 456 3 456 3 c 2,199,-1
 442 2 l 1,200,-1
 179 2 l 2,201,202
 158 2 158 2 141 14 c 0,203,204
 133 19 133 19 129 23 c 0,205,206
 122 30 122 30 120 33 c 128,-1,207
 118 36 118 36 120 42 c 0,183,184
89 376 m 0,208,209
 91 378 91 378 97 380 c 128,-1,210
 103 382 103 382 111 383 c 0,211,212
 120 383 120 383 128 379 c 0,213,214
 135 375 135 375 161.5 359.5 c 128,-1,215
 188 344 188 344 197 339 c 0,216,217
 205 335 205 335 205 326 c 2,218,-1
 205 151 l 2,219,220
 205 138 205 138 196 130 c 0,221,222
 186 120 186 120 155 89.5 c 128,-1,223
 124 59 124 59 120 55 c 0,224,225
 116 50 116 50 109 50 c 0,226,227
 99 50 99 50 95 58 c 256,228,229
 90 66 90 66 90 67 c 0,230,231
 76 92 76 92 76 120 c 2,232,-1
 76 354 l 2,233,234
 76 365 76 365 84 371 c 0,235,236
 86 374 86 374 89 376 c 0,208,209
EndSplineSet
Validated: 2049
EndChar
